<svg xmlns="http://www.w3.org/2000/svg" xmlns:xlink="http://www.w3.org/1999/xlink" width="1800" height="828" viewBox="0 0 1800 828" font-family="Helvetica, Arial, sans-serif">
<metadata><rdf:RDF xmlns:rdf="http://www.w3.org/1999/02/22-rdf-syntax-ns#" xmlns:dc="http://purl.org/dc/elements/1.1/" xmlns:cc="http://creativecommons.org/ns#"><cc:Work rdf:about=""><dc:creator>Steffen Zimmermann</dc:creator><dc:source>https://git-z0man.github.io/eu-regulation-timeline/</dc:source><dc:rights>Steffen Zimmermann, EU regulation timeline, https://git-z0man.github.io/eu-regulation-timeline/, CC BY 4.0</dc:rights><cc:license rdf:resource="https://creativecommons.org/licenses/by/4.0/"/></cc:Work></rdf:RDF></metadata>
<rect width="1800" height="828" fill="#ffffff"/>
<g class="procedure" data-route="agreement at first reading: the Council approved the EP position" data-state="adopted" data-as_of="">
<text font-size="18" fill="#222222" text-anchor="start" font-weight="bold"><tspan x="24.0" y="28.3">Legislative procedure – GPSR – Regulation (EU) 2023/988</tspan></text>
<text font-size="11" fill="#555555" text-anchor="start"><tspan x="24.0" y="48.9">Procedure 2021/0170(COD). Route: agreement at first reading: the Council approved the EP position. Upper part: the ordinary legislative procedure (Art. 294 TFEU); lower part: the act&#x27;s procedure over time. Every event cites its source (see gpsr.html).</tspan></text>
<text font-size="13" fill="#222222" text-anchor="start" font-weight="bold"><tspan x="24.0" y="82.5">Ordinary legislative procedure (Art. 294 TFEU)</tspan></text>
<rect x="1010.0" y="94.0" width="22.0" height="11.0" fill="#dce6f6" stroke="#2f5a9e" stroke-width="1.5"/>
<text font-size="9" fill="#444444" text-anchor="start"><tspan x="1041.0" y="102.7">route taken / step done</tspan></text>
<rect x="1010.0" y="114.0" width="22.0" height="11.0" fill="#fff3c4" stroke="#b07520" stroke-dasharray="6 3" stroke-width="2"/>
<text font-size="9" fill="#444444" text-anchor="start"><tspan x="1041.0" y="122.7">step in progress</tspan></text>
<rect x="1200.0" y="94.0" width="22.0" height="11.0" fill="#f4f5f6" stroke="#b5bac0" stroke-width="1.5"/>
<text font-size="9" fill="#444444" text-anchor="start"><tspan x="1231.0" y="102.7">not reached</tspan></text>
<rect x="1200.0" y="114.0" width="22.0" height="11.0" fill="#fff8e1" stroke="#8a6d00" stroke-dasharray="6 3" stroke-width="2"/>
<text font-size="9" fill="#444444" text-anchor="start"><tspan x="1231.0" y="122.7">informal (trilogues)</tspan></text>
<rect x="20.0" y="150.0" width="190.0" height="58.0" fill="#dce6f6" stroke="#2f5a9e" stroke-width="2.5"/>
<text font-size="11" fill="#1f2d3d" text-anchor="middle" font-weight="bold"><tspan x="115.0" y="167.8">Commission proposal</tspan></text>
<text font-size="9" fill="#555555" text-anchor="middle"><tspan x="115.0" y="199.2">Art. 294(2)</tspan></text>
<text font-size="9" fill="#2f5a9e" text-anchor="middle" font-weight="bold"><tspan x="115.0" y="220.2">30 Jun 2021</tspan></text>
<rect x="250.0" y="150.0" width="200.0" height="58.0" fill="#dce6f6" stroke="#2f5a9e" stroke-width="2.5"/>
<text font-size="11" fill="#1f2d3d" text-anchor="middle" font-weight="bold"><tspan x="350.0" y="167.8">EP position at first reading</tspan></text>
<text font-size="9" fill="#555555" text-anchor="middle"><tspan x="350.0" y="199.2">Art. 294(3)</tspan></text>
<text font-size="9" fill="#2f5a9e" text-anchor="middle" font-weight="bold"><tspan x="350.0" y="220.2">30 Mar 2023</tspan></text>
<rect x="490.0" y="150.0" width="210.0" height="58.0" fill="#dce6f6" stroke="#2f5a9e" stroke-width="2.5"/>
<text font-size="11" fill="#1f2d3d" text-anchor="middle" font-weight="bold"><tspan x="595.0" y="167.8">Council approves the EP position?</tspan></text>
<text font-size="9" fill="#555555" text-anchor="middle"><tspan x="595.0" y="199.2">Art. 294(4)</tspan></text>
<rect x="740.0" y="150.0" width="230.0" height="58.0" fill="#dce6f6" stroke="#2f5a9e" stroke-width="2.5"/>
<text font-size="11" fill="#1f2d3d" text-anchor="middle" font-weight="bold"><tspan x="855.0" y="161.0">Act adopted in the wording of the EP</tspan><tspan x="855.0" y="174.7">position</tspan></text>
<text font-size="9" fill="#555555" text-anchor="middle"><tspan x="855.0" y="199.2">Art. 294(4)</tspan></text>
<text font-size="9" fill="#2f5a9e" text-anchor="middle" font-weight="bold"><tspan x="855.0" y="220.2">signed 10 May 2023</tspan></text>
<rect x="490.0" y="262.0" width="210.0" height="58.0" fill="#f4f5f6" stroke="#b5bac0" stroke-width="1"/>
<text font-size="11" fill="#6f757b" text-anchor="middle"><tspan x="595.0" y="279.9">Council position at first reading</tspan></text>
<text font-size="9" fill="#9aa0a6" text-anchor="middle"><tspan x="595.0" y="311.1">Art. 294(5), (6)</tspan></text>
<rect x="740.0" y="262.0" width="230.0" height="58.0" fill="#f4f5f6" stroke="#b5bac0" stroke-width="1"/>
<text font-size="11" fill="#6f757b" text-anchor="middle"><tspan x="855.0" y="279.9">EP second reading, 3 (+1) months</tspan></text>
<text font-size="9" fill="#9aa0a6" text-anchor="middle"><tspan x="855.0" y="311.1">Art. 294(7), (14)</tspan></text>
<rect x="1010.0" y="262.0" width="230.0" height="58.0" fill="#f4f5f6" stroke="#b5bac0" stroke-width="1"/>
<text font-size="11" fill="#6f757b" text-anchor="middle"><tspan x="1125.0" y="279.9">Council second reading, 3 (+1) months</tspan></text>
<text font-size="9" fill="#9aa0a6" text-anchor="middle"><tspan x="1125.0" y="311.1">Art. 294(8), (9), (14)</tspan></text>
<rect x="1280.0" y="262.0" width="230.0" height="58.0" fill="#f4f5f6" stroke="#b5bac0" stroke-width="1"/>
<text font-size="11" fill="#6f757b" text-anchor="middle"><tspan x="1395.0" y="279.9">Conciliation Committee, 6 (+2) weeks</tspan></text>
<text font-size="9" fill="#9aa0a6" text-anchor="middle"><tspan x="1395.0" y="311.1">Art. 294(10)–(12), (14)</tspan></text>
<rect x="1550.0" y="262.0" width="230.0" height="58.0" fill="#f4f5f6" stroke="#b5bac0" stroke-width="1"/>
<text font-size="11" fill="#6f757b" text-anchor="middle"><tspan x="1665.0" y="273.0">Third reading: EP and Council, 6 (+2)</tspan><tspan x="1665.0" y="286.7">weeks</tspan></text>
<text font-size="9" fill="#9aa0a6" text-anchor="middle"><tspan x="1665.0" y="311.1">Art. 294(13), (14)</tspan></text>
<text font-size="9" fill="#6f757b" text-anchor="middle"><tspan x="855.0" y="338.5">approves or no decision → adopted (7a); rejects</tspan><tspan x="855.0" y="349.8">→ not adopted (7b)</tspan></text>
<text font-size="9" fill="#6f757b" text-anchor="middle"><tspan x="1125.0" y="344.1">approves all amendments → adopted (8a)</tspan></text>
<text font-size="9" fill="#6f757b" text-anchor="middle"><tspan x="1395.0" y="344.1">no joint text → not adopted (12)</tspan></text>
<text font-size="9" fill="#6f757b" text-anchor="middle"><tspan x="1665.0" y="338.5">both adopt → adopted; otherwise not adopted</tspan><tspan x="1665.0" y="349.8">(13)</tspan></text>
<polyline points="210.0,179.0 250.0,179.0" fill="none" stroke="#2f5a9e" stroke-width="2.5"/><polygon points="250.0,179.0 241.0,183.5 241.0,174.5" fill="#2f5a9e"/>
<polyline points="450.0,179.0 490.0,179.0" fill="none" stroke="#2f5a9e" stroke-width="2.5"/><polygon points="490.0,179.0 481.0,183.5 481.0,174.5" fill="#2f5a9e"/>
<polyline points="700.0,179.0 740.0,179.0" fill="none" stroke="#2f5a9e" stroke-width="2.5"/><polygon points="740.0,179.0 731.0,183.5 731.0,174.5" fill="#2f5a9e"/>
<text font-size="9" fill="#2f5a9e" text-anchor="start" font-weight="bold"><tspan x="706.0" y="168.2">yes</tspan></text>
<polyline points="595.0,224.0 595.0,262.0" fill="none" stroke="#b5bac0" stroke-width="1.2"/><polygon points="595.0,262.0 590.5,253.0 599.5,253.0" fill="#b5bac0"/>
<text font-size="9" fill="#b5bac0" text-anchor="start"><tspan x="603.0" y="245.2">no</tspan></text>
<polyline points="700.0,291.0 740.0,291.0" fill="none" stroke="#b5bac0" stroke-width="1.2"/><polygon points="740.0,291.0 731.0,295.5 731.0,286.5" fill="#b5bac0"/>
<polyline points="970.0,291.0 1010.0,291.0" fill="none" stroke="#b5bac0" stroke-width="1.2"/><polygon points="1010.0,291.0 1001.0,295.5 1001.0,286.5" fill="#b5bac0"/>
<polyline points="1240.0,291.0 1280.0,291.0" fill="none" stroke="#b5bac0" stroke-width="1.2"/><polygon points="1280.0,291.0 1271.0,295.5 1271.0,286.5" fill="#b5bac0"/>
<polyline points="1510.0,291.0 1550.0,291.0" fill="none" stroke="#b5bac0" stroke-width="1.2"/><polygon points="1550.0,291.0 1541.0,295.5 1541.0,286.5" fill="#b5bac0"/>
<text font-size="9" fill="#b5bac0" text-anchor="start"><tspan x="976.0" y="280.1">amends</tspan></text>
<text font-size="9" fill="#b5bac0" text-anchor="start"><tspan x="1246.0" y="280.1">not all</tspan></text>
<rect x="250.0" y="96.0" width="720.0" height="40.0" fill="#fff8e1" stroke="#8a6d00" stroke-dasharray="6 3" stroke-width="2"/>
<text font-size="9" fill="#8a6d00" text-anchor="start"><tspan x="254.0" y="113.5">Informal: trilogues of EP, Council and Commission at every stage (Joint Declaration 2007, points 7–9); a trilogue agreement confirmed by Coreper and</tspan><tspan x="254.0" y="124.8">offered by letter to the EP committee chair (point 14) leads to adoption at first reading, or, after the EP first reading, to an early second reading.</tspan></text>
<text font-size="13" fill="#222222" text-anchor="start" font-weight="bold"><tspan x="24.0" y="400.6">Procedure over time – 2021/0170(COD)</tspan></text>
<polygon points="1018,389 1025,396 1018,403 1011,396" fill="#2f5a9e" stroke="#2f5a9e" stroke-width="1.5"/>
<text font-size="9" fill="#444444" text-anchor="start"><tspan x="1034.0" y="398.6">step of Art. 294 TFEU</tspan></text>
<polygon points="1180,391 1185,396 1180,401 1175,396" fill="#ffffff" stroke="#222222" stroke-width="1.5"/>
<text font-size="9" fill="#444444" text-anchor="start"><tspan x="1194.0" y="398.6">other event</tspan></text>
<polygon points="1264,392.5 1267.5,396 1264,399.5 1260.5,396" fill="#555555" stroke="#555555" stroke-width="1.5"/>
<text font-size="9" fill="#444444" text-anchor="start"><tspan x="1276.0" y="398.6">working party meeting</tspan></text>
<rect x="1390.0" y="391.0" width="26.0" height="10.0" fill="#7b8794" stroke="none" opacity="0.3"/>
<text font-size="9" fill="#444444" text-anchor="start"><tspan x="1424.0" y="398.6">phase</tspan></text>
<line x1="210.0" y1="440.0" x2="210.0" y2="744.0" stroke="#e3e6e9" stroke-width="1"/>
<line x1="272.0" y1="440.0" x2="272.0" y2="744.0" stroke="#e3e6e9" stroke-width="1"/>
<text font-size="9" fill="#555555" text-anchor="middle"><tspan x="272.0" y="435.1">Jul</tspan></text>
<line x1="336.0" y1="440.0" x2="336.0" y2="744.0" stroke="#e3e6e9" stroke-width="1"/>
<line x1="400.1" y1="440.0" x2="400.1" y2="744.0" stroke="#e3e6e9" stroke-width="1"/>
<line x1="462.0" y1="440.0" x2="462.0" y2="744.0" stroke="#e3e6e9" stroke-width="1"/>
<text font-size="9" fill="#555555" text-anchor="middle"><tspan x="462.0" y="435.1">Oct</tspan></text>
<line x1="526.1" y1="440.0" x2="526.1" y2="744.0" stroke="#e3e6e9" stroke-width="1"/>
<line x1="588.0" y1="440.0" x2="588.0" y2="744.0" stroke="#e3e6e9" stroke-width="1"/>
<line x1="652.1" y1="440.0" x2="652.1" y2="744.0" stroke="#b5bac0" stroke-width="1"/>
<text font-size="9" fill="#555555" text-anchor="middle" font-weight="bold"><tspan x="652.1" y="435.1">Jan 2022</tspan></text>
<line x1="716.1" y1="440.0" x2="716.1" y2="744.0" stroke="#e3e6e9" stroke-width="1"/>
<line x1="774.0" y1="440.0" x2="774.0" y2="744.0" stroke="#e3e6e9" stroke-width="1"/>
<line x1="838.0" y1="440.0" x2="838.0" y2="744.0" stroke="#e3e6e9" stroke-width="1"/>
<text font-size="9" fill="#555555" text-anchor="middle"><tspan x="838.0" y="435.1">Apr</tspan></text>
<line x1="900.0" y1="440.0" x2="900.0" y2="744.0" stroke="#e3e6e9" stroke-width="1"/>
<line x1="964.0" y1="440.0" x2="964.0" y2="744.0" stroke="#e3e6e9" stroke-width="1"/>
<line x1="1026.0" y1="440.0" x2="1026.0" y2="744.0" stroke="#e3e6e9" stroke-width="1"/>
<text font-size="9" fill="#555555" text-anchor="middle"><tspan x="1026.0" y="435.1">Jul</tspan></text>
<line x1="1090.0" y1="440.0" x2="1090.0" y2="744.0" stroke="#e3e6e9" stroke-width="1"/>
<line x1="1154.1" y1="440.0" x2="1154.1" y2="744.0" stroke="#e3e6e9" stroke-width="1"/>
<line x1="1216.0" y1="440.0" x2="1216.0" y2="744.0" stroke="#e3e6e9" stroke-width="1"/>
<text font-size="9" fill="#555555" text-anchor="middle"><tspan x="1216.0" y="435.1">Oct</tspan></text>
<line x1="1280.1" y1="440.0" x2="1280.1" y2="744.0" stroke="#e3e6e9" stroke-width="1"/>
<line x1="1342.1" y1="440.0" x2="1342.1" y2="744.0" stroke="#e3e6e9" stroke-width="1"/>
<line x1="1406.1" y1="440.0" x2="1406.1" y2="744.0" stroke="#b5bac0" stroke-width="1"/>
<text font-size="9" fill="#555555" text-anchor="middle" font-weight="bold"><tspan x="1406.1" y="435.1">Jan 2023</tspan></text>
<line x1="1470.1" y1="440.0" x2="1470.1" y2="744.0" stroke="#e3e6e9" stroke-width="1"/>
<line x1="1528.0" y1="440.0" x2="1528.0" y2="744.0" stroke="#e3e6e9" stroke-width="1"/>
<line x1="1592.0" y1="440.0" x2="1592.0" y2="744.0" stroke="#e3e6e9" stroke-width="1"/>
<text font-size="9" fill="#555555" text-anchor="middle"><tspan x="1592.0" y="435.1">Apr</tspan></text>
<line x1="1654.0" y1="440.0" x2="1654.0" y2="744.0" stroke="#e3e6e9" stroke-width="1"/>
<line x1="1718.0" y1="440.0" x2="1718.0" y2="744.0" stroke="#e3e6e9" stroke-width="1"/>
<line x1="1780.0" y1="440.0" x2="1780.0" y2="744.0" stroke="#e3e6e9" stroke-width="1"/>
<text font-size="9" fill="#555555" text-anchor="middle"><tspan x="1780.0" y="435.1">Jul</tspan></text>
<rect x="20.0" y="440.0" width="1760.0" height="50.0" fill="#ffffff" stroke="#eceef0"/>
<rect x="20.0" y="444.0" width="6.0" height="42.0" fill="#2a78d6" stroke="none"/>
<text font-size="11" fill="#222222" text-anchor="start" font-weight="bold"><tspan x="34.0" y="468.9">European Commission</tspan></text>
<rect x="20.0" y="490.0" width="1760.0" height="50.0" fill="#fafbfc" stroke="#eceef0"/>
<rect x="20.0" y="494.0" width="6.0" height="42.0" fill="#7b8794" stroke="none"/>
<text font-size="11" fill="#222222" text-anchor="start" font-weight="bold"><tspan x="34.0" y="518.9">Consultative bodies</tspan></text>
<rect x="20.0" y="540.0" width="1760.0" height="50.0" fill="#ffffff" stroke="#eceef0"/>
<rect x="20.0" y="544.0" width="6.0" height="42.0" fill="#1baf7a" stroke="none"/>
<text font-size="11" fill="#222222" text-anchor="start" font-weight="bold"><tspan x="34.0" y="568.9">European Parliament</tspan></text>
<rect x="20.0" y="590.0" width="1760.0" height="28.0" fill="#fafbfc" stroke="#eceef0"/>
<rect x="20.0" y="594.0" width="6.0" height="20.0" fill="#eda100" stroke="none" opacity="0.35"/>
<text font-size="11" fill="#8a9097" text-anchor="start"><tspan x="34.0" y="607.9">Trilogues (informal)</tspan></text>
<text font-size="9" fill="#8a9097" text-anchor="start"><tspan x="222.0" y="607.1">no events</tspan></text>
<rect x="20.0" y="618.0" width="1760.0" height="63.0" fill="#ffffff" stroke="#eceef0"/>
<rect x="20.0" y="622.0" width="6.0" height="55.0" fill="#4a3aa7" stroke="none"/>
<text font-size="11" fill="#222222" text-anchor="start" font-weight="bold"><tspan x="34.0" y="653.4">Council</tspan></text>
<rect x="20.0" y="681.0" width="1760.0" height="63.0" fill="#fafbfc" stroke="#eceef0"/>
<rect x="20.0" y="685.0" width="6.0" height="55.0" fill="#444444" stroke="none"/>
<text font-size="11" fill="#222222" text-anchor="start" font-weight="bold"><tspan x="34.0" y="716.4">Signature and publication</tspan></text>
<rect x="265.9" y="453.0" width="253.0" height="12.0" fill="#ffffff"/>
<a xlink:href="https://eur-lex.europa.eu/legal-content/EN/TXT/?uri=CELEX:52021PC0346" target="_blank"><text font-size="9" fill="#1f2d3d" text-anchor="start" font-weight="bold"><tspan x="269.9" y="462.1">30 Jun 2021 · Commission proposal (COM(2021) 346)</tspan></text></a>
<a xlink:href="https://eur-lex.europa.eu/legal-content/EN/TXT/?uri=CELEX:52021PC0346" target="_blank"><title>30 Jun 2021: Commission proposal – COM(2021) 346</title><polygon points="269.9078947368421,465 277.9078947368421,473 269.9078947368421,481 261.9078947368421,473" fill="#2a78d6" stroke="#1f2d3d" stroke-width="1.5"/></a>
<rect x="497.3" y="503.0" width="224.2" height="12.0" fill="#ffffff"/>
<a xlink:href="https://eur-lex.europa.eu/legal-content/EN/TXT/?uri=CELEX:52021AE3583" target="_blank"><text font-size="9" fill="#222222" text-anchor="start"><tspan x="501.3" y="512.1">20 Oct 2021 · EESC opinion (CELEX 52021AE3583)</tspan></text></a>
<a xlink:href="https://eur-lex.europa.eu/legal-content/EN/TXT/?uri=CELEX:52021AE3583" target="_blank"><title>20 Oct 2021: EESC opinion – CELEX 52021AE3583</title><polygon points="501.2763157894737,517.5 506.7763157894737,523 501.2763157894737,528.5 495.7763157894737,523" fill="#ffffff" stroke="#7b8794" stroke-width="1.5"/></a>
<rect x="1472.0" y="553.0" width="308.0" height="12.0" fill="#ffffff"/>
<a xlink:href="https://data.europarl.europa.eu/distribution/doc/TA-9-2023-0090_en.pdf" target="_blank"><text font-size="9" fill="#1f2d3d" text-anchor="start" font-weight="bold"><tspan x="1476.0" y="562.1">30 Mar 2023 · EP position at first reading (P9_TA(2023)0090)</tspan></text></a>
<rect x="420.8" y="553.0" width="271.2" height="12.0" fill="#ffffff"/>
<text font-size="9" fill="#222222" text-anchor="start"><tspan x="424.8" y="562.1">13 Sep 2021 · Referral to committee announced in plenary</tspan></text>
<rect x="1032.3" y="553.0" width="252.4" height="12.0" fill="#ffffff"/>
<text font-size="9" fill="#222222" text-anchor="start"><tspan x="1036.3" y="562.1">06 Jul 2022 · Plenary confirms mandate for trilogues</tspan></text>
<g><title>13 Sep 2021: Referral to committee announced in plenary</title><polygon points="424.8421052631579,567.5 430.3421052631579,573 424.8421052631579,578.5 419.3421052631579,573" fill="#ffffff" stroke="#1baf7a" stroke-width="1.5"/></g>
<g><title>06 Jul 2022: Plenary confirms mandate for trilogues</title><polygon points="1036.3157894736842,567.5 1041.8157894736842,573 1036.3157894736842,578.5 1030.8157894736842,573" fill="#ffffff" stroke="#1baf7a" stroke-width="1.5"/></g>
<a xlink:href="https://data.europarl.europa.eu/distribution/doc/TA-9-2023-0090_en.pdf" target="_blank"><title>30 Mar 2023: EP position at first reading – P9_TA(2023)0090</title><polygon points="1587.8815789473683,565 1595.8815789473683,573 1587.8815789473683,581 1579.8815789473683,573" fill="#1baf7a" stroke="#1f2d3d" stroke-width="1.5"/></a>
<rect x="559.2" y="631.0" width="440.4" height="12.0" fill="#ffffff"/>
<a xlink:href="https://data.consilium.europa.eu/doc/document/ST-13576-2021-INIT/en/pdf" target="_blank"><text font-size="9" fill="#222222" text-anchor="start"><tspan x="563.2" y="640.1">19 Nov 2021 · Council text of the proposal (subject not given in the register) (ST 13576/21)</tspan></text></a>
<rect x="1061.2" y="631.0" width="388.7" height="12.0" fill="#ffffff"/>
<a xlink:href="https://data.consilium.europa.eu/doc/document/ST-11469-2022-INIT/en/pdf" target="_blank"><text font-size="9" fill="#222222" text-anchor="start"><tspan x="1065.2" y="640.1">20 Jul 2022 · Mandate for negotiations with the European Parliament (ST 11469/22)</tspan></text></a>
<rect x="1152.1" y="660.0" width="205.4" height="12.0" fill="#ffffff"/>
<a xlink:href="https://data.consilium.europa.eu/doc/document/ST-12074-2022-INIT/en/pdf" target="_blank"><text font-size="9" fill="#222222" text-anchor="start"><tspan x="1156.1" y="669.1">02 Sep 2022 · 4 column table (ST 12074/22)</tspan></text></a>
<a xlink:href="https://data.consilium.europa.eu/doc/document/ST-13576-2021-INIT/en/pdf" target="_blank"><title>19 Nov 2021: Council text of the proposal (subject not given in the register) – ST 13576/21</title><polygon points="563.25,645.5 568.75,651 563.25,656.5 557.75,651" fill="#ffffff" stroke="#4a3aa7" stroke-width="1.5"/></a>
<a xlink:href="https://data.consilium.europa.eu/doc/document/ST-11469-2022-INIT/en/pdf" target="_blank"><title>20 Jul 2022: Mandate for negotiations with the European Parliament – ST 11469/22</title><polygon points="1065.2368421052633,645.5 1070.7368421052633,651 1065.2368421052633,656.5 1059.7368421052633,651" fill="#ffffff" stroke="#4a3aa7" stroke-width="1.5"/></a>
<a xlink:href="https://data.consilium.europa.eu/doc/document/ST-12074-2022-INIT/en/pdf" target="_blank"><title>02 Sep 2022: 4 column table – ST 12074/22</title><polygon points="1156.1315789473683,645.5 1161.6315789473683,651 1156.1315789473683,656.5 1150.6315789473683,651" fill="#ffffff" stroke="#4a3aa7" stroke-width="1.5"/></a>
<rect x="1494.7" y="694.0" width="285.3" height="12.0" fill="#ffffff"/>
<text font-size="9" fill="#222222" text-anchor="start"><tspan x="1498.7" y="703.1">10 May 2023 · Signature by the Presidents of EP and Council</tspan></text>
<rect x="1461.8" y="723.0" width="318.2" height="12.0" fill="#ffffff"/>
<a xlink:href="https://eur-lex.europa.eu/legal-content/EN/TXT/?uri=CELEX:32023R0988" target="_blank"><text font-size="9" fill="#222222" text-anchor="start"><tspan x="1465.8" y="732.1">23 May 2023 · Published in the Official Journal (CELEX 32023R0988)</tspan></text></a>
<g><title>10 May 2023: Signature by the Presidents of EP and Council</title><polygon points="1672.578947368421,708.5 1678.078947368421,714 1672.578947368421,719.5 1667.078947368421,714" fill="#ffffff" stroke="#444444" stroke-width="1.5"/></g>
<a xlink:href="https://eur-lex.europa.eu/legal-content/EN/TXT/?uri=CELEX:32023R0988" target="_blank"><title>23 May 2023: Published in the Official Journal – CELEX 32023R0988</title><polygon points="1699.4342105263158,708.5 1704.9342105263158,714 1699.4342105263158,719.5 1693.9342105263158,714" fill="#ffffff" stroke="#444444" stroke-width="1.5"/></a>
<text font-size="11" fill="#222222" text-anchor="start" font-weight="bold"><tspan x="24.0" y="775.9">Notes</tspan></text>
<text font-size="9" fill="#6f757b" text-anchor="start"><tspan x="24.0" y="793.1">Labels are shortened; the procedure page lists every event in full with its document and source. Sources: EP Open Data API (procedure events), Cellar procedure file, Council register documents and agendas, EUR-Lex. Our own compilation, not an official record.</tspan></text>
</g>
<text font-size="10" fill="#5b646b" text-anchor="end"><tspan x="1776.0" y="819.5">Steffen Zimmermann · git-z0man.github.io/eu-regulation-timeline · CC BY 4.0</tspan></text>
</svg>
