<svg xmlns="http://www.w3.org/2000/svg" xmlns:xlink="http://www.w3.org/1999/xlink" width="1800" height="1004" viewBox="0 0 1800 1004" font-family="Helvetica, Arial, sans-serif">
<rect width="1800" height="1004" fill="#ffffff"/>
<text font-size="18" fill="#222222" text-anchor="start" font-weight="bold"><tspan x="24.0" y="28.3">Legislative procedure – IMERA omnibus – Regulation (EU) 2024/2748</tspan></text>
<text font-size="11" fill="#555555" text-anchor="start"><tspan x="24.0" y="48.9">Procedure 2022/0279(COD). Upper part: the ordinary legislative procedure (Art. 294 TFEU); the route this act took is highlighted. Lower part: the act&#x27;s procedure over time. Every event cites its source (see internal-market-emergency-omnibus.html).</tspan></text>
<text font-size="13" fill="#222222" text-anchor="start" font-weight="bold"><tspan x="24.0" y="82.5">Ordinary legislative procedure (Art. 294 TFEU)</tspan></text>
<rect x="20.0" y="150.0" width="190.0" height="58.0" fill="#dce6f6" stroke="#2f5a9e" stroke-width="2.5"/>
<text font-size="11" fill="#1f2d3d" text-anchor="middle" font-weight="bold"><tspan x="115.0" y="167.8">Commission proposal</tspan></text>
<text font-size="9" fill="#555555" text-anchor="middle"><tspan x="115.0" y="199.2">Art. 294(2)</tspan></text>
<rect x="250.0" y="150.0" width="200.0" height="58.0" fill="#dce6f6" stroke="#2f5a9e" stroke-width="2.5"/>
<text font-size="11" fill="#1f2d3d" text-anchor="middle" font-weight="bold"><tspan x="350.0" y="167.8">EP position at first reading</tspan></text>
<text font-size="9" fill="#555555" text-anchor="middle"><tspan x="350.0" y="199.2">Art. 294(3)</tspan></text>
<text font-size="9" fill="#2f5a9e" text-anchor="middle" font-weight="bold"><tspan x="350.0" y="220.2">24 Apr 2024</tspan></text>
<rect x="490.0" y="150.0" width="210.0" height="58.0" fill="#dce6f6" stroke="#2f5a9e" stroke-width="2.5"/>
<text font-size="11" fill="#1f2d3d" text-anchor="middle" font-weight="bold"><tspan x="595.0" y="167.8">Council approves the EP position?</tspan></text>
<text font-size="9" fill="#555555" text-anchor="middle"><tspan x="595.0" y="199.2">Art. 294(4)</tspan></text>
<rect x="740.0" y="150.0" width="230.0" height="58.0" fill="#dce6f6" stroke="#2f5a9e" stroke-width="2.5"/>
<text font-size="11" fill="#1f2d3d" text-anchor="middle" font-weight="bold"><tspan x="855.0" y="161.0">Act adopted in the wording of the EP</tspan><tspan x="855.0" y="174.7">position</tspan></text>
<text font-size="9" fill="#555555" text-anchor="middle"><tspan x="855.0" y="199.2">Art. 294(4)</tspan></text>
<text font-size="9" fill="#2f5a9e" text-anchor="middle" font-weight="bold"><tspan x="855.0" y="220.2">signed 09 Oct 2024</tspan></text>
<rect x="490.0" y="262.0" width="210.0" height="58.0" fill="#f4f5f6" stroke="#b5bac0" stroke-width="1"/>
<text font-size="11" fill="#6f757b" text-anchor="middle"><tspan x="595.0" y="279.9">Council position at first reading</tspan></text>
<text font-size="9" fill="#9aa0a6" text-anchor="middle"><tspan x="595.0" y="311.1">Art. 294(5), (6)</tspan></text>
<rect x="740.0" y="262.0" width="230.0" height="58.0" fill="#f4f5f6" stroke="#b5bac0" stroke-width="1"/>
<text font-size="11" fill="#6f757b" text-anchor="middle"><tspan x="855.0" y="279.9">EP second reading, 3 (+1) months</tspan></text>
<text font-size="9" fill="#9aa0a6" text-anchor="middle"><tspan x="855.0" y="311.1">Art. 294(7), (14)</tspan></text>
<rect x="1010.0" y="262.0" width="230.0" height="58.0" fill="#f4f5f6" stroke="#b5bac0" stroke-width="1"/>
<text font-size="11" fill="#6f757b" text-anchor="middle"><tspan x="1125.0" y="279.9">Council second reading, 3 (+1) months</tspan></text>
<text font-size="9" fill="#9aa0a6" text-anchor="middle"><tspan x="1125.0" y="311.1">Art. 294(8), (9), (14)</tspan></text>
<rect x="1280.0" y="262.0" width="230.0" height="58.0" fill="#f4f5f6" stroke="#b5bac0" stroke-width="1"/>
<text font-size="11" fill="#6f757b" text-anchor="middle"><tspan x="1395.0" y="279.9">Conciliation Committee, 6 (+2) weeks</tspan></text>
<text font-size="9" fill="#9aa0a6" text-anchor="middle"><tspan x="1395.0" y="311.1">Art. 294(10)–(12), (14)</tspan></text>
<rect x="1550.0" y="262.0" width="230.0" height="58.0" fill="#f4f5f6" stroke="#b5bac0" stroke-width="1"/>
<text font-size="11" fill="#6f757b" text-anchor="middle"><tspan x="1665.0" y="273.0">Third reading: EP and Council, 6 (+2)</tspan><tspan x="1665.0" y="286.7">weeks</tspan></text>
<text font-size="9" fill="#9aa0a6" text-anchor="middle"><tspan x="1665.0" y="311.1">Art. 294(13), (14)</tspan></text>
<text font-size="9" fill="#6f757b" text-anchor="middle"><tspan x="855.0" y="338.5">approves or no decision → adopted (7a); rejects</tspan><tspan x="855.0" y="349.8">→ not adopted (7b)</tspan></text>
<text font-size="9" fill="#6f757b" text-anchor="middle"><tspan x="1125.0" y="344.1">approves all amendments → adopted (8a)</tspan></text>
<text font-size="9" fill="#6f757b" text-anchor="middle"><tspan x="1395.0" y="344.1">no joint text → not adopted (12)</tspan></text>
<text font-size="9" fill="#6f757b" text-anchor="middle"><tspan x="1665.0" y="338.5">both adopt → adopted; otherwise not adopted</tspan><tspan x="1665.0" y="349.8">(13)</tspan></text>
<polyline points="210.0,179.0 250.0,179.0" fill="none" stroke="#2f5a9e" stroke-width="2.5"/><polygon points="250.0,179.0 241.0,183.5 241.0,174.5" fill="#2f5a9e"/>
<polyline points="450.0,179.0 490.0,179.0" fill="none" stroke="#2f5a9e" stroke-width="2.5"/><polygon points="490.0,179.0 481.0,183.5 481.0,174.5" fill="#2f5a9e"/>
<polyline points="700.0,179.0 740.0,179.0" fill="none" stroke="#2f5a9e" stroke-width="2.5"/><polygon points="740.0,179.0 731.0,183.5 731.0,174.5" fill="#2f5a9e"/>
<text font-size="9" fill="#2f5a9e" text-anchor="start"><tspan x="706.0" y="168.2">yes</tspan></text>
<polyline points="595.0,208.0 595.0,262.0" fill="none" stroke="#b5bac0" stroke-width="1.2"/><polygon points="595.0,262.0 590.5,253.0 599.5,253.0" fill="#b5bac0"/>
<text font-size="9" fill="#b5bac0" text-anchor="start"><tspan x="603.0" y="237.2">no</tspan></text>
<polyline points="700.0,291.0 740.0,291.0" fill="none" stroke="#b5bac0" stroke-width="1.2"/><polygon points="740.0,291.0 731.0,295.5 731.0,286.5" fill="#b5bac0"/>
<polyline points="970.0,291.0 1010.0,291.0" fill="none" stroke="#b5bac0" stroke-width="1.2"/><polygon points="1010.0,291.0 1001.0,295.5 1001.0,286.5" fill="#b5bac0"/>
<polyline points="1240.0,291.0 1280.0,291.0" fill="none" stroke="#b5bac0" stroke-width="1.2"/><polygon points="1280.0,291.0 1271.0,295.5 1271.0,286.5" fill="#b5bac0"/>
<polyline points="1510.0,291.0 1550.0,291.0" fill="none" stroke="#b5bac0" stroke-width="1.2"/><polygon points="1550.0,291.0 1541.0,295.5 1541.0,286.5" fill="#b5bac0"/>
<text font-size="9" fill="#b5bac0" text-anchor="start"><tspan x="976.0" y="280.1">amends</tspan></text>
<text font-size="9" fill="#b5bac0" text-anchor="start"><tspan x="1246.0" y="280.1">not all</tspan></text>
<rect x="250.0" y="96.0" width="720.0" height="40.0" fill="#fff8e1" stroke="#8a6d00" stroke-dasharray="6 3" stroke-width="2"/>
<text font-size="9" fill="#8a6d00" text-anchor="start"><tspan x="254.0" y="113.5">Informal: trilogues of EP, Council and Commission at every stage (Joint Declaration 2007, points 7–9); a trilogue agreement confirmed by Coreper and</tspan><tspan x="254.0" y="124.8">offered by letter to the EP committee chair (point 14) leads to adoption at first reading.</tspan></text>
<text font-size="13" fill="#222222" text-anchor="start" font-weight="bold"><tspan x="24.0" y="388.6">Procedure over time – 2022/0279(COD)</tspan></text>
<line x1="210.0" y1="420.0" x2="210.0" y2="936.0" stroke="#e3e6e9" stroke-width="1"/>
<line x1="269.5" y1="420.0" x2="269.5" y2="936.0" stroke="#e3e6e9" stroke-width="1"/>
<line x1="330.9" y1="420.0" x2="330.9" y2="936.0" stroke="#b5bac0" stroke-width="1"/>
<text font-size="9" fill="#555555" text-anchor="middle" font-weight="bold"><tspan x="330.9" y="415.1">Jan 2023</tspan></text>
<line x1="392.4" y1="420.0" x2="392.4" y2="936.0" stroke="#e3e6e9" stroke-width="1"/>
<line x1="447.9" y1="420.0" x2="447.9" y2="936.0" stroke="#e3e6e9" stroke-width="1"/>
<line x1="509.3" y1="420.0" x2="509.3" y2="936.0" stroke="#e3e6e9" stroke-width="1"/>
<text font-size="9" fill="#555555" text-anchor="middle"><tspan x="509.3" y="415.1">Apr</tspan></text>
<line x1="568.8" y1="420.0" x2="568.8" y2="936.0" stroke="#e3e6e9" stroke-width="1"/>
<line x1="630.3" y1="420.0" x2="630.3" y2="936.0" stroke="#e3e6e9" stroke-width="1"/>
<line x1="689.7" y1="420.0" x2="689.7" y2="936.0" stroke="#e3e6e9" stroke-width="1"/>
<text font-size="9" fill="#555555" text-anchor="middle"><tspan x="689.7" y="415.1">Jul</tspan></text>
<line x1="751.2" y1="420.0" x2="751.2" y2="936.0" stroke="#e3e6e9" stroke-width="1"/>
<line x1="812.6" y1="420.0" x2="812.6" y2="936.0" stroke="#e3e6e9" stroke-width="1"/>
<line x1="872.1" y1="420.0" x2="872.1" y2="936.0" stroke="#e3e6e9" stroke-width="1"/>
<text font-size="9" fill="#555555" text-anchor="middle"><tspan x="872.1" y="415.1">Oct</tspan></text>
<line x1="933.5" y1="420.0" x2="933.5" y2="936.0" stroke="#e3e6e9" stroke-width="1"/>
<line x1="993.0" y1="420.0" x2="993.0" y2="936.0" stroke="#e3e6e9" stroke-width="1"/>
<line x1="1054.5" y1="420.0" x2="1054.5" y2="936.0" stroke="#b5bac0" stroke-width="1"/>
<text font-size="9" fill="#555555" text-anchor="middle" font-weight="bold"><tspan x="1054.5" y="415.1">Jan 2024</tspan></text>
<line x1="1115.9" y1="420.0" x2="1115.9" y2="936.0" stroke="#e3e6e9" stroke-width="1"/>
<line x1="1173.4" y1="420.0" x2="1173.4" y2="936.0" stroke="#e3e6e9" stroke-width="1"/>
<line x1="1234.9" y1="420.0" x2="1234.9" y2="936.0" stroke="#e3e6e9" stroke-width="1"/>
<text font-size="9" fill="#555555" text-anchor="middle"><tspan x="1234.9" y="415.1">Apr</tspan></text>
<line x1="1294.3" y1="420.0" x2="1294.3" y2="936.0" stroke="#e3e6e9" stroke-width="1"/>
<line x1="1355.8" y1="420.0" x2="1355.8" y2="936.0" stroke="#e3e6e9" stroke-width="1"/>
<line x1="1415.3" y1="420.0" x2="1415.3" y2="936.0" stroke="#e3e6e9" stroke-width="1"/>
<text font-size="9" fill="#555555" text-anchor="middle"><tspan x="1415.3" y="415.1">Jul</tspan></text>
<line x1="1476.7" y1="420.0" x2="1476.7" y2="936.0" stroke="#e3e6e9" stroke-width="1"/>
<line x1="1538.2" y1="420.0" x2="1538.2" y2="936.0" stroke="#e3e6e9" stroke-width="1"/>
<line x1="1597.6" y1="420.0" x2="1597.6" y2="936.0" stroke="#e3e6e9" stroke-width="1"/>
<text font-size="9" fill="#555555" text-anchor="middle"><tspan x="1597.6" y="415.1">Oct</tspan></text>
<line x1="1659.1" y1="420.0" x2="1659.1" y2="936.0" stroke="#e3e6e9" stroke-width="1"/>
<line x1="1718.5" y1="420.0" x2="1718.5" y2="936.0" stroke="#e3e6e9" stroke-width="1"/>
<line x1="1780.0" y1="420.0" x2="1780.0" y2="936.0" stroke="#b5bac0" stroke-width="1"/>
<text font-size="9" fill="#555555" text-anchor="middle" font-weight="bold"><tspan x="1780.0" y="415.1">Jan 2025</tspan></text>
<rect x="20.0" y="420.0" width="1760.0" height="86.0" fill="#ffffff" stroke="#eceef0"/>
<rect x="20.0" y="428.0" width="6.0" height="70.0" fill="#4a78c2" stroke="none"/>
<text font-size="11" fill="#4a78c2" text-anchor="start" font-weight="bold"><tspan x="34.0" y="466.9">European Commission</tspan></text>
<rect x="20.0" y="506.0" width="1760.0" height="86.0" fill="#fafbfc" stroke="#eceef0"/>
<rect x="20.0" y="514.0" width="6.0" height="70.0" fill="#7b8794" stroke="none"/>
<text font-size="11" fill="#7b8794" text-anchor="start" font-weight="bold"><tspan x="34.0" y="552.9">Consultative bodies</tspan></text>
<rect x="20.0" y="592.0" width="1760.0" height="86.0" fill="#ffffff" stroke="#eceef0"/>
<rect x="20.0" y="600.0" width="6.0" height="70.0" fill="#2e7d5b" stroke="none"/>
<text font-size="11" fill="#2e7d5b" text-anchor="start" font-weight="bold"><tspan x="34.0" y="638.9">European Parliament</tspan></text>
<rect x="20.0" y="678.0" width="1760.0" height="86.0" fill="#fafbfc" stroke="#eceef0"/>
<rect x="20.0" y="686.0" width="6.0" height="70.0" fill="#8a6d00" stroke="none"/>
<text font-size="11" fill="#8a6d00" text-anchor="start" font-weight="bold"><tspan x="34.0" y="724.9">Trilogues (informal)</tspan></text>
<rect x="20.0" y="764.0" width="1760.0" height="86.0" fill="#ffffff" stroke="#eceef0"/>
<rect x="20.0" y="772.0" width="6.0" height="70.0" fill="#b5472d" stroke="none"/>
<text font-size="11" fill="#b5472d" text-anchor="start" font-weight="bold"><tspan x="34.0" y="810.9">Council</tspan></text>
<rect x="20.0" y="850.0" width="1760.0" height="86.0" fill="#fafbfc" stroke="#eceef0"/>
<rect x="20.0" y="858.0" width="6.0" height="70.0" fill="#444444" stroke="none"/>
<text font-size="11" fill="#444444" text-anchor="start" font-weight="bold"><tspan x="34.0" y="896.9">Signature and publication</tspan></text>
<g><title>21 Nov 2022: Referral to committee announced in plenary</title><polygon points="249.64646464646464,629.0 255.64646464646464,635.0 249.64646464646464,641.0 243.64646464646464,635.0" fill="#ffffff" stroke="#222222" stroke-width="1.5"/></g>
<rect x="245.6" y="599.0" width="271.2" height="12.0" fill="#ffffff"/>
<text font-size="9" fill="#222222" text-anchor="start"><tspan x="249.6" y="608.1">21 Nov 2022 · Referral to committee announced in plenary</tspan></text>
<a xlink:href="https://eur-lex.europa.eu/legal-content/EN/TXT/?uri=CELEX:52022AE4098" target="_blank"><title>14 Dec 2022: EESC opinion – CELEX 52022AE4098</title><polygon points="295.23989898989896,543.0 301.23989898989896,549.0 295.23989898989896,555.0 289.23989898989896,549.0" fill="#ffffff" stroke="#222222" stroke-width="1.5"/></a>
<rect x="291.2" y="513.0" width="224.2" height="12.0" fill="#ffffff"/>
<a xlink:href="https://eur-lex.europa.eu/legal-content/EN/TXT/?uri=CELEX:52022AE4098" target="_blank"><text font-size="9" fill="#222222" text-anchor="start"><tspan x="295.2" y="522.1">14 Dec 2022 · EESC opinion (CELEX 52022AE4098)</tspan></text></a>
<g><title>16 Dec 2022: IMCO rapporteur appointed (Andreas Schwab, PPE)</title><polygon points="299.20454545454544,629.0 305.20454545454544,635.0 299.20454545454544,641.0 293.20454545454544,635.0" fill="#ffffff" stroke="#222222" stroke-width="1.5"/></g>
<rect x="295.2" y="611.0" width="294.7" height="12.0" fill="#ffffff"/>
<text font-size="9" fill="#222222" text-anchor="start"><tspan x="299.2" y="620.1">16 Dec 2022 · IMCO rapporteur appointed (Andreas Schwab, PPE)</tspan></text>
<g><title>10 Mar 2023: IMCO draft report – PE745.282</title><polygon points="465.719696969697,629.0 471.719696969697,635.0 465.719696969697,641.0 459.719696969697,635.0" fill="#ffffff" stroke="#222222" stroke-width="1.5"/></g>
<rect x="461.7" y="651.0" width="210.1" height="12.0" fill="#ffffff"/>
<text font-size="9" fill="#222222" text-anchor="start"><tspan x="465.7" y="660.1">10 Mar 2023 · IMCO draft report (PE745.282)</tspan></text>
<g><title>18 Jul 2023: Committee adopts report and mandate</title><polygon points="723.4217171717172,629.0 729.4217171717172,635.0 723.4217171717172,641.0 717.4217171717172,635.0" fill="#ffffff" stroke="#222222" stroke-width="1.5"/></g>
<rect x="719.4" y="599.0" width="238.3" height="12.0" fill="#ffffff"/>
<text font-size="9" fill="#222222" text-anchor="start"><tspan x="723.4" y="608.1">18 Jul 2023 · Committee adopts report and mandate</tspan></text>
<g><title>24 Jul 2023: Report tabled for plenary – A9-0244/2023</title><polygon points="735.3156565656566,629.0 741.3156565656566,635.0 735.3156565656566,641.0 729.3156565656566,635.0" fill="#ffffff" stroke="#222222" stroke-width="1.5"/></g>
<rect x="731.3" y="611.0" width="261.8" height="12.0" fill="#ffffff"/>
<text font-size="9" fill="#222222" text-anchor="start"><tspan x="735.3" y="620.1">24 Jul 2023 · Report tabled for plenary (A9-0244/2023)</tspan></text>
<g><title>13 Sep 2023: Plenary confirms mandate for trilogues</title><polygon points="836.4141414141415,629.0 842.4141414141415,635.0 836.4141414141415,641.0 830.4141414141415,635.0" fill="#ffffff" stroke="#222222" stroke-width="1.5"/></g>
<rect x="832.4" y="651.0" width="252.4" height="12.0" fill="#ffffff"/>
<text font-size="9" fill="#222222" text-anchor="start"><tspan x="836.4" y="660.1">13 Sep 2023 · Plenary confirms mandate for trilogues</tspan></text>
<a xlink:href="https://data.consilium.europa.eu/doc/document/ST-14016-2023-INIT/en/pdf" target="_blank"><title>11 Oct 2023: Mandate for negotiations with the European Parliament – ST 14016/23</title><polygon points="891.9191919191919,801.0 897.9191919191919,807.0 891.9191919191919,813.0 885.9191919191919,807.0" fill="#ffffff" stroke="#222222" stroke-width="1.5"/></a>
<rect x="887.9" y="771.0" width="388.7" height="12.0" fill="#ffffff"/>
<a xlink:href="https://data.consilium.europa.eu/doc/document/ST-14016-2023-INIT/en/pdf" target="_blank"><text font-size="9" fill="#222222" text-anchor="start"><tspan x="891.9" y="780.1">11 Oct 2023 · Mandate for negotiations with the European Parliament (ST 14016/23)</tspan></text></a>
<a xlink:href="https://data.consilium.europa.eu/doc/document/ST-14832-2023-INIT/en/pdf" target="_blank"><title>27 Oct 2023: Council text of the proposal (subject not given in the register) – ST 14832/23</title><polygon points="923.6363636363636,801.0 929.6363636363636,807.0 923.6363636363636,813.0 917.6363636363636,807.0" fill="#ffffff" stroke="#222222" stroke-width="1.5"/></a>
<rect x="919.6" y="783.0" width="440.4" height="12.0" fill="#ffffff"/>
<a xlink:href="https://data.consilium.europa.eu/doc/document/ST-14832-2023-INIT/en/pdf" target="_blank"><text font-size="9" fill="#222222" text-anchor="start"><tspan x="923.6" y="792.1">27 Oct 2023 · Council text of the proposal (subject not given in the register) (ST 14832/23)</tspan></text></a>
<a xlink:href="https://data.consilium.europa.eu/doc/document/ST-6288-2024-INIT/en/pdf" target="_blank"><title>14 Feb 2024: Regulation on the Single Market Emergency Instrument Regulation amending Regulations (EU) … – ST 6288/24</title><polygon points="1141.6919191919192,801.0 1147.6919191919192,807.0 1141.6919191919192,813.0 1135.6919191919192,807.0" fill="#ffffff" stroke="#222222" stroke-width="1.5"/></a>
<rect x="1137.7" y="823.0" width="562.6" height="12.0" fill="#ffffff"/>
<a xlink:href="https://data.consilium.europa.eu/doc/document/ST-6288-2024-INIT/en/pdf" target="_blank"><text font-size="9" fill="#222222" text-anchor="start"><tspan x="1141.7" y="832.1">14 Feb 2024 · Regulation on the Single Market Emergency Instrument Regulation amending Regulations (EU) … (ST 6288/24)</tspan></text></a>
<a xlink:href="https://data.consilium.europa.eu/doc/document/ST-6288-2024-ADD-1/en/pdf" target="_blank"><title>14 Feb 2024: Regulation on the Single Market Emergency Instrument Regulation amending Regulations (EU) … – ST 6288/24 ADD 1</title><polygon points="1141.6919191919192,801.0 1147.6919191919192,807.0 1141.6919191919192,813.0 1135.6919191919192,807.0" fill="#ffffff" stroke="#222222" stroke-width="1.5"/></a>
<rect x="1137.7" y="835.0" width="590.8" height="12.0" fill="#ffffff"/>
<a xlink:href="https://data.consilium.europa.eu/doc/document/ST-6288-2024-ADD-1/en/pdf" target="_blank"><text font-size="9" fill="#222222" text-anchor="start"><tspan x="1141.7" y="844.1">14 Feb 2024 · Regulation on the Single Market Emergency Instrument Regulation amending Regulations (EU) … (ST 6288/24 ADD 1)</tspan></text></a>
<a xlink:href="https://data.consilium.europa.eu/doc/document/ST-6288-2024-ADD-3/en/pdf" target="_blank"><title>14 Feb 2024: Regulation on the Single Market Emergency Instrument Regulation amending Regulations (EU) … – ST 6288/24 ADD 3</title><polygon points="1141.6919191919192,801.0 1147.6919191919192,807.0 1141.6919191919192,813.0 1135.6919191919192,807.0" fill="#ffffff" stroke="#222222" stroke-width="1.5"/></a>
<rect x="1137.7" y="759.0" width="590.8" height="12.0" fill="#ffffff"/>
<a xlink:href="https://data.consilium.europa.eu/doc/document/ST-6288-2024-ADD-3/en/pdf" target="_blank"><text font-size="9" fill="#222222" text-anchor="start"><tspan x="1141.7" y="768.1">14 Feb 2024 · Regulation on the Single Market Emergency Instrument Regulation amending Regulations (EU) … (ST 6288/24 ADD 3)</tspan></text></a>
<a xlink:href="https://data.consilium.europa.eu/doc/document/ST-6288-2024-ADD-2-REV-1/en/pdf" target="_blank"><title>15 Feb 2024: Regulation on the Single Market Emergency Instrument Regulation amending Regulations (EU) … – ST 6288/24 ADD 2 REV 1</title><polygon points="1143.6742424242425,801.0 1149.6742424242425,807.0 1143.6742424242425,813.0 1137.6742424242425,807.0" fill="#ffffff" stroke="#222222" stroke-width="1.5"/></a>
<rect x="1139.7" y="847.0" width="619.0" height="12.0" fill="#ffffff"/>
<a xlink:href="https://data.consilium.europa.eu/doc/document/ST-6288-2024-ADD-2-REV-1/en/pdf" target="_blank"><text font-size="9" fill="#222222" text-anchor="start"><tspan x="1143.7" y="856.1">15 Feb 2024 · Regulation on the Single Market Emergency Instrument Regulation amending Regulations (EU) … (ST 6288/24 ADD 2 REV 1)</tspan></text></a>
<g><title>22 Feb 2024: Committee approves provisional agreement – PE759.092</title><polygon points="1157.5505050505049,629.0 1163.5505050505049,635.0 1157.5505050505049,641.0 1151.5505050505049,635.0" fill="#ffffff" stroke="#222222" stroke-width="1.5"/></g>
<rect x="1153.6" y="599.0" width="318.2" height="12.0" fill="#ffffff"/>
<text font-size="9" fill="#222222" text-anchor="start"><tspan x="1157.6" y="608.1">22 Feb 2024 · Committee approves provisional agreement (PE759.092)</tspan></text>
<g><title>24 Apr 2024: EP position at first reading – P9_TA(2024)0321</title><polygon points="1280.4545454545453,629.0 1286.4545454545453,635.0 1280.4545454545453,641.0 1274.4545454545453,635.0" fill="#ffffff" stroke="#222222" stroke-width="1.5"/></g>
<rect x="1276.5" y="611.0" width="290.0" height="12.0" fill="#ffffff"/>
<text font-size="9" fill="#222222" text-anchor="start"><tspan x="1280.5" y="620.1">24 Apr 2024 · EP position at first reading (P9_TA(2024)0321)</tspan></text>
<g><title>09 Oct 2024: Signature by the Presidents of EP and Council</title><polygon points="1613.4848484848485,887.0 1619.4848484848485,893.0 1613.4848484848485,899.0 1607.4848484848485,893.0" fill="#ffffff" stroke="#222222" stroke-width="1.5"/></g>
<rect x="1494.7" y="869.0" width="285.3" height="12.0" fill="#ffffff"/>
<text font-size="9" fill="#222222" text-anchor="start"><tspan x="1498.7" y="878.1">09 Oct 2024 · Signature by the Presidents of EP and Council</tspan></text>
<g><title>08 Nov 2024: Published in the Official Journal</title><polygon points="1672.9545454545453,887.0 1678.9545454545453,893.0 1672.9545454545453,899.0 1666.9545454545453,893.0" fill="#ffffff" stroke="#222222" stroke-width="1.5"/></g>
<rect x="1551.1" y="909.0" width="228.9" height="12.0" fill="#ffffff"/>
<text font-size="9" fill="#222222" text-anchor="start"><tspan x="1555.1" y="918.1">08 Nov 2024 · Published in the Official Journal</tspan></text>
<text font-size="11" fill="#222222" text-anchor="start" font-weight="bold"><tspan x="24.0" y="967.9">Notes</tspan></text>
<text font-size="9" fill="#6f757b" text-anchor="start"><tspan x="24.0" y="985.1">Sources: EP Open Data API (procedure events), Cellar procedure file and Council register documents (ST numbers), EUR-Lex. Our own compilation, not an official record.</tspan></text>
</svg>
