<svg xmlns="http://www.w3.org/2000/svg" xmlns:xlink="http://www.w3.org/1999/xlink" width="1800" height="1004" viewBox="0 0 1800 1004" font-family="Helvetica, Arial, sans-serif">
<rect width="1800" height="1004" fill="#ffffff"/>
<text font-size="18" fill="#222222" text-anchor="start" font-weight="bold"><tspan x="24.0" y="28.3">Legislative procedure – MSR – Regulation (EU) 2019/1020</tspan></text>
<text font-size="11" fill="#555555" text-anchor="start"><tspan x="24.0" y="48.9">Procedure 2017/0353(COD). Upper part: the ordinary legislative procedure (Art. 294 TFEU); the route could not be derived from the register. Lower part: the act&#x27;s procedure over time. Every event cites its source (see market-surveillance.html).</tspan></text>
<text font-size="13" fill="#222222" text-anchor="start" font-weight="bold"><tspan x="24.0" y="82.5">Ordinary legislative procedure (Art. 294 TFEU)</tspan></text>
<rect x="20.0" y="150.0" width="190.0" height="58.0" fill="#dce6f6" stroke="#2f5a9e" stroke-width="2.5"/>
<text font-size="11" fill="#1f2d3d" text-anchor="middle" font-weight="bold"><tspan x="115.0" y="167.8">Commission proposal</tspan></text>
<text font-size="9" fill="#555555" text-anchor="middle"><tspan x="115.0" y="199.2">Art. 294(2)</tspan></text>
<rect x="250.0" y="150.0" width="200.0" height="58.0" fill="#f4f5f6" stroke="#b5bac0" stroke-width="1"/>
<text font-size="11" fill="#6f757b" text-anchor="middle"><tspan x="350.0" y="167.8">EP position at first reading</tspan></text>
<text font-size="9" fill="#9aa0a6" text-anchor="middle"><tspan x="350.0" y="199.2">Art. 294(3)</tspan></text>
<rect x="490.0" y="150.0" width="210.0" height="58.0" fill="#f4f5f6" stroke="#b5bac0" stroke-width="1"/>
<text font-size="11" fill="#6f757b" text-anchor="middle"><tspan x="595.0" y="167.8">Council approves the EP position?</tspan></text>
<text font-size="9" fill="#9aa0a6" text-anchor="middle"><tspan x="595.0" y="199.2">Art. 294(4)</tspan></text>
<rect x="740.0" y="150.0" width="230.0" height="58.0" fill="#f4f5f6" stroke="#b5bac0" stroke-width="1"/>
<text font-size="11" fill="#6f757b" text-anchor="middle"><tspan x="855.0" y="161.0">Act adopted in the wording of the EP</tspan><tspan x="855.0" y="174.7">position</tspan></text>
<text font-size="9" fill="#9aa0a6" text-anchor="middle"><tspan x="855.0" y="199.2">Art. 294(4)</tspan></text>
<rect x="490.0" y="262.0" width="210.0" height="58.0" fill="#f4f5f6" stroke="#b5bac0" stroke-width="1"/>
<text font-size="11" fill="#6f757b" text-anchor="middle"><tspan x="595.0" y="279.9">Council position at first reading</tspan></text>
<text font-size="9" fill="#9aa0a6" text-anchor="middle"><tspan x="595.0" y="311.1">Art. 294(5), (6)</tspan></text>
<rect x="740.0" y="262.0" width="230.0" height="58.0" fill="#f4f5f6" stroke="#b5bac0" stroke-width="1"/>
<text font-size="11" fill="#6f757b" text-anchor="middle"><tspan x="855.0" y="279.9">EP second reading, 3 (+1) months</tspan></text>
<text font-size="9" fill="#9aa0a6" text-anchor="middle"><tspan x="855.0" y="311.1">Art. 294(7), (14)</tspan></text>
<rect x="1010.0" y="262.0" width="230.0" height="58.0" fill="#f4f5f6" stroke="#b5bac0" stroke-width="1"/>
<text font-size="11" fill="#6f757b" text-anchor="middle"><tspan x="1125.0" y="279.9">Council second reading, 3 (+1) months</tspan></text>
<text font-size="9" fill="#9aa0a6" text-anchor="middle"><tspan x="1125.0" y="311.1">Art. 294(8), (9), (14)</tspan></text>
<rect x="1280.0" y="262.0" width="230.0" height="58.0" fill="#f4f5f6" stroke="#b5bac0" stroke-width="1"/>
<text font-size="11" fill="#6f757b" text-anchor="middle"><tspan x="1395.0" y="279.9">Conciliation Committee, 6 (+2) weeks</tspan></text>
<text font-size="9" fill="#9aa0a6" text-anchor="middle"><tspan x="1395.0" y="311.1">Art. 294(10)–(12), (14)</tspan></text>
<rect x="1550.0" y="262.0" width="230.0" height="58.0" fill="#f4f5f6" stroke="#b5bac0" stroke-width="1"/>
<text font-size="11" fill="#6f757b" text-anchor="middle"><tspan x="1665.0" y="273.0">Third reading: EP and Council, 6 (+2)</tspan><tspan x="1665.0" y="286.7">weeks</tspan></text>
<text font-size="9" fill="#9aa0a6" text-anchor="middle"><tspan x="1665.0" y="311.1">Art. 294(13), (14)</tspan></text>
<text font-size="9" fill="#6f757b" text-anchor="middle"><tspan x="855.0" y="338.5">approves or no decision → adopted (7a); rejects</tspan><tspan x="855.0" y="349.8">→ not adopted (7b)</tspan></text>
<text font-size="9" fill="#6f757b" text-anchor="middle"><tspan x="1125.0" y="344.1">approves all amendments → adopted (8a)</tspan></text>
<text font-size="9" fill="#6f757b" text-anchor="middle"><tspan x="1395.0" y="344.1">no joint text → not adopted (12)</tspan></text>
<text font-size="9" fill="#6f757b" text-anchor="middle"><tspan x="1665.0" y="338.5">both adopt → adopted; otherwise not adopted</tspan><tspan x="1665.0" y="349.8">(13)</tspan></text>
<polyline points="210.0,179.0 250.0,179.0" fill="none" stroke="#b5bac0" stroke-width="1.2"/><polygon points="250.0,179.0 241.0,183.5 241.0,174.5" fill="#b5bac0"/>
<polyline points="450.0,179.0 490.0,179.0" fill="none" stroke="#b5bac0" stroke-width="1.2"/><polygon points="490.0,179.0 481.0,183.5 481.0,174.5" fill="#b5bac0"/>
<polyline points="700.0,179.0 740.0,179.0" fill="none" stroke="#b5bac0" stroke-width="1.2"/><polygon points="740.0,179.0 731.0,183.5 731.0,174.5" fill="#b5bac0"/>
<text font-size="9" fill="#b5bac0" text-anchor="start"><tspan x="706.0" y="168.2">yes</tspan></text>
<polyline points="595.0,208.0 595.0,262.0" fill="none" stroke="#b5bac0" stroke-width="1.2"/><polygon points="595.0,262.0 590.5,253.0 599.5,253.0" fill="#b5bac0"/>
<text font-size="9" fill="#b5bac0" text-anchor="start"><tspan x="603.0" y="237.2">no</tspan></text>
<polyline points="700.0,291.0 740.0,291.0" fill="none" stroke="#b5bac0" stroke-width="1.2"/><polygon points="740.0,291.0 731.0,295.5 731.0,286.5" fill="#b5bac0"/>
<polyline points="970.0,291.0 1010.0,291.0" fill="none" stroke="#b5bac0" stroke-width="1.2"/><polygon points="1010.0,291.0 1001.0,295.5 1001.0,286.5" fill="#b5bac0"/>
<polyline points="1240.0,291.0 1280.0,291.0" fill="none" stroke="#b5bac0" stroke-width="1.2"/><polygon points="1280.0,291.0 1271.0,295.5 1271.0,286.5" fill="#b5bac0"/>
<polyline points="1510.0,291.0 1550.0,291.0" fill="none" stroke="#b5bac0" stroke-width="1.2"/><polygon points="1550.0,291.0 1541.0,295.5 1541.0,286.5" fill="#b5bac0"/>
<text font-size="9" fill="#b5bac0" text-anchor="start"><tspan x="976.0" y="280.1">amends</tspan></text>
<text font-size="9" fill="#b5bac0" text-anchor="start"><tspan x="1246.0" y="280.1">not all</tspan></text>
<rect x="250.0" y="96.0" width="720.0" height="40.0" fill="#fff8e1" stroke="#8a6d00" stroke-dasharray="6 3" stroke-width="2"/>
<text font-size="9" fill="#8a6d00" text-anchor="start"><tspan x="254.0" y="113.5">Informal: trilogues of EP, Council and Commission at every stage (Joint Declaration 2007, points 7–9); a trilogue agreement confirmed by Coreper and</tspan><tspan x="254.0" y="124.8">offered by letter to the EP committee chair (point 14) leads to adoption at first reading.</tspan></text>
<text font-size="13" fill="#222222" text-anchor="start" font-weight="bold"><tspan x="24.0" y="388.6">Procedure over time – 2017/0353(COD)</tspan></text>
<line x1="210.0" y1="420.0" x2="210.0" y2="936.0" stroke="#e3e6e9" stroke-width="1"/>
<line x1="290.5" y1="420.0" x2="290.5" y2="936.0" stroke="#e3e6e9" stroke-width="1"/>
<line x1="379.7" y1="420.0" x2="379.7" y2="936.0" stroke="#e3e6e9" stroke-width="1"/>
<text font-size="9" fill="#555555" text-anchor="middle"><tspan x="379.7" y="415.1">Apr</tspan></text>
<line x1="465.9" y1="420.0" x2="465.9" y2="936.0" stroke="#e3e6e9" stroke-width="1"/>
<line x1="555.1" y1="420.0" x2="555.1" y2="936.0" stroke="#e3e6e9" stroke-width="1"/>
<line x1="641.3" y1="420.0" x2="641.3" y2="936.0" stroke="#e3e6e9" stroke-width="1"/>
<text font-size="9" fill="#555555" text-anchor="middle"><tspan x="641.3" y="415.1">Jul</tspan></text>
<line x1="730.5" y1="420.0" x2="730.5" y2="936.0" stroke="#e3e6e9" stroke-width="1"/>
<line x1="819.6" y1="420.0" x2="819.6" y2="936.0" stroke="#e3e6e9" stroke-width="1"/>
<line x1="905.9" y1="420.0" x2="905.9" y2="936.0" stroke="#e3e6e9" stroke-width="1"/>
<text font-size="9" fill="#555555" text-anchor="middle"><tspan x="905.9" y="415.1">Oct</tspan></text>
<line x1="995.0" y1="420.0" x2="995.0" y2="936.0" stroke="#e3e6e9" stroke-width="1"/>
<line x1="1081.3" y1="420.0" x2="1081.3" y2="936.0" stroke="#e3e6e9" stroke-width="1"/>
<line x1="1170.4" y1="420.0" x2="1170.4" y2="936.0" stroke="#b5bac0" stroke-width="1"/>
<text font-size="9" fill="#555555" text-anchor="middle" font-weight="bold"><tspan x="1170.4" y="415.1">Jan 2019</tspan></text>
<line x1="1259.5" y1="420.0" x2="1259.5" y2="936.0" stroke="#e3e6e9" stroke-width="1"/>
<line x1="1340.1" y1="420.0" x2="1340.1" y2="936.0" stroke="#e3e6e9" stroke-width="1"/>
<line x1="1429.2" y1="420.0" x2="1429.2" y2="936.0" stroke="#e3e6e9" stroke-width="1"/>
<text font-size="9" fill="#555555" text-anchor="middle"><tspan x="1429.2" y="415.1">Apr</tspan></text>
<line x1="1515.5" y1="420.0" x2="1515.5" y2="936.0" stroke="#e3e6e9" stroke-width="1"/>
<line x1="1604.6" y1="420.0" x2="1604.6" y2="936.0" stroke="#e3e6e9" stroke-width="1"/>
<line x1="1690.9" y1="420.0" x2="1690.9" y2="936.0" stroke="#e3e6e9" stroke-width="1"/>
<text font-size="9" fill="#555555" text-anchor="middle"><tspan x="1690.9" y="415.1">Jul</tspan></text>
<line x1="1780.0" y1="420.0" x2="1780.0" y2="936.0" stroke="#e3e6e9" stroke-width="1"/>
<rect x="20.0" y="420.0" width="1760.0" height="86.0" fill="#ffffff" stroke="#eceef0"/>
<rect x="20.0" y="428.0" width="6.0" height="70.0" fill="#4a78c2" stroke="none"/>
<text font-size="11" fill="#4a78c2" text-anchor="start" font-weight="bold"><tspan x="34.0" y="466.9">European Commission</tspan></text>
<rect x="20.0" y="506.0" width="1760.0" height="86.0" fill="#fafbfc" stroke="#eceef0"/>
<rect x="20.0" y="514.0" width="6.0" height="70.0" fill="#7b8794" stroke="none"/>
<text font-size="11" fill="#7b8794" text-anchor="start" font-weight="bold"><tspan x="34.0" y="552.9">Consultative bodies</tspan></text>
<rect x="20.0" y="592.0" width="1760.0" height="86.0" fill="#ffffff" stroke="#eceef0"/>
<rect x="20.0" y="600.0" width="6.0" height="70.0" fill="#2e7d5b" stroke="none"/>
<text font-size="11" fill="#2e7d5b" text-anchor="start" font-weight="bold"><tspan x="34.0" y="638.9">European Parliament</tspan></text>
<rect x="20.0" y="678.0" width="1760.0" height="86.0" fill="#fafbfc" stroke="#eceef0"/>
<rect x="20.0" y="686.0" width="6.0" height="70.0" fill="#8a6d00" stroke="none"/>
<text font-size="11" fill="#8a6d00" text-anchor="start" font-weight="bold"><tspan x="34.0" y="724.9">Trilogues (informal)</tspan></text>
<rect x="20.0" y="764.0" width="1760.0" height="86.0" fill="#ffffff" stroke="#eceef0"/>
<rect x="20.0" y="772.0" width="6.0" height="70.0" fill="#b5472d" stroke="none"/>
<text font-size="11" fill="#b5472d" text-anchor="start" font-weight="bold"><tspan x="34.0" y="810.9">Council</tspan></text>
<rect x="20.0" y="850.0" width="1760.0" height="86.0" fill="#fafbfc" stroke="#eceef0"/>
<rect x="20.0" y="858.0" width="6.0" height="70.0" fill="#444444" stroke="none"/>
<text font-size="11" fill="#444444" text-anchor="start" font-weight="bold"><tspan x="34.0" y="896.9">Signature and publication</tspan></text>
<g><title>05 Feb 2018: Referral to committee announced in plenary</title><polygon points="221.5018315018315,629.0 227.5018315018315,635.0 221.5018315018315,641.0 215.5018315018315,635.0" fill="#ffffff" stroke="#222222" stroke-width="1.5"/></g>
<rect x="217.5" y="599.0" width="271.2" height="12.0" fill="#ffffff"/>
<text font-size="9" fill="#222222" text-anchor="start"><tspan x="221.5" y="608.1">05 Feb 2018 · Referral to committee announced in plenary</tspan></text>
<g><title>12 Sep 2018: Plenary confirms mandate for trilogues</title><polygon points="851.2271062271062,629.0 857.2271062271062,635.0 851.2271062271062,641.0 845.2271062271062,635.0" fill="#ffffff" stroke="#222222" stroke-width="1.5"/></g>
<rect x="847.2" y="599.0" width="252.4" height="12.0" fill="#ffffff"/>
<text font-size="9" fill="#222222" text-anchor="start"><tspan x="851.2" y="608.1">12 Sep 2018 · Plenary confirms mandate for trilogues</tspan></text>
<a xlink:href="https://data.consilium.europa.eu/doc/document/ST-14313-2018-REV-1-COR-1/en/pdf" target="_blank"><title>23 Nov 2018: mandate for negotiations with the European Parliament – ST 14313/18 REV 1 COR 1</title><polygon points="1058.260073260073,801.0 1064.260073260073,807.0 1058.260073260073,813.0 1052.260073260073,807.0" fill="#ffffff" stroke="#222222" stroke-width="1.5"/></a>
<rect x="1054.3" y="771.0" width="445.1" height="12.0" fill="#ffffff"/>
<a xlink:href="https://data.consilium.europa.eu/doc/document/ST-14313-2018-REV-1-COR-1/en/pdf" target="_blank"><text font-size="9" fill="#222222" text-anchor="start"><tspan x="1058.3" y="780.1">23 Nov 2018 · mandate for negotiations with the European Parliament (ST 14313/18 REV 1 COR 1)</tspan></text></a>
<a xlink:href="https://data.consilium.europa.eu/doc/document/ST-6155-2019-INIT/en/pdf" target="_blank"><title>14 Feb 2019: Analysis of the final compromise text with a view to agreement – ST 6155/19</title><polygon points="1296.923076923077,801.0 1302.923076923077,807.0 1296.923076923077,813.0 1290.923076923077,807.0" fill="#ffffff" stroke="#222222" stroke-width="1.5"/></a>
<rect x="1292.9" y="783.0" width="426.3" height="12.0" fill="#ffffff"/>
<a xlink:href="https://data.consilium.europa.eu/doc/document/ST-6155-2019-INIT/en/pdf" target="_blank"><text font-size="9" fill="#222222" text-anchor="start"><tspan x="1296.9" y="792.1">14 Feb 2019 · Analysis of the final compromise text with a view to agreement (ST 6155/19)</tspan></text></a>
<g><title>17 Apr 2019: Plenary adopt position</title><polygon points="1475.2014652014652,629.0 1481.2014652014652,635.0 1475.2014652014652,641.0 1469.2014652014652,635.0" fill="#ffffff" stroke="#222222" stroke-width="1.5"/></g>
<rect x="1471.2" y="599.0" width="177.2" height="12.0" fill="#ffffff"/>
<text font-size="9" fill="#222222" text-anchor="start"><tspan x="1475.2" y="608.1">17 Apr 2019 · Plenary adopt position</tspan></text>
<g><title>20 Jun 2019: Signature by the Presidents of EP and Council</title><polygon points="1659.2307692307693,887.0 1665.2307692307693,893.0 1659.2307692307693,899.0 1653.2307692307693,893.0" fill="#ffffff" stroke="#222222" stroke-width="1.5"/></g>
<rect x="1494.7" y="857.0" width="285.3" height="12.0" fill="#ffffff"/>
<text font-size="9" fill="#222222" text-anchor="start"><tspan x="1498.7" y="866.1">20 Jun 2019 · Signature by the Presidents of EP and Council</tspan></text>
<g><title>25 Jun 2019: Published in the Official Journal</title><polygon points="1673.6080586080586,887.0 1679.6080586080586,893.0 1673.6080586080586,899.0 1667.6080586080586,893.0" fill="#ffffff" stroke="#222222" stroke-width="1.5"/></g>
<rect x="1551.1" y="869.0" width="228.9" height="12.0" fill="#ffffff"/>
<text font-size="9" fill="#222222" text-anchor="start"><tspan x="1555.1" y="878.1">25 Jun 2019 · Published in the Official Journal</tspan></text>
<text font-size="11" fill="#222222" text-anchor="start" font-weight="bold"><tspan x="24.0" y="967.9">Notes</tspan></text>
<text font-size="9" fill="#6f757b" text-anchor="start"><tspan x="24.0" y="985.1">Sources: EP Open Data API (procedure events), Cellar procedure file and Council register documents (ST numbers), EUR-Lex. Our own compilation, not an official record.</tspan></text>
</svg>
