<svg xmlns="http://www.w3.org/2000/svg" xmlns:xlink="http://www.w3.org/1999/xlink" width="1800" height="955" viewBox="0 0 1800 955" font-family="Helvetica, Arial, sans-serif">
<rect width="1800" height="955" fill="#ffffff"/>
<g class="procedure" data-route="agreement at first reading: the Council approved the EP position" data-state="adopted" data-as_of="">
<text font-size="18" fill="#222222" text-anchor="start" font-weight="bold"><tspan x="24.0" y="28.3">Legislative procedure – NZIA – Regulation (EU) 2024/1735</tspan></text>
<text font-size="11" fill="#555555" text-anchor="start"><tspan x="24.0" y="48.9">Procedure 2023/0081(COD). Route: agreement at first reading: the Council approved the EP position. Upper part: the ordinary legislative procedure (Art. 294 TFEU); lower part: the act&#x27;s procedure over time. Every event cites its source (see nzia.html).</tspan></text>
<text font-size="13" fill="#222222" text-anchor="start" font-weight="bold"><tspan x="24.0" y="82.5">Ordinary legislative procedure (Art. 294 TFEU)</tspan></text>
<rect x="1010.0" y="94.0" width="22.0" height="11.0" fill="#dce6f6" stroke="#2f5a9e" stroke-width="1.5"/>
<text font-size="9" fill="#444444" text-anchor="start"><tspan x="1041.0" y="102.7">route taken / step done</tspan></text>
<rect x="1010.0" y="114.0" width="22.0" height="11.0" fill="#fff3c4" stroke="#b07520" stroke-dasharray="6 3" stroke-width="2"/>
<text font-size="9" fill="#444444" text-anchor="start"><tspan x="1041.0" y="122.7">step in progress</tspan></text>
<rect x="1200.0" y="94.0" width="22.0" height="11.0" fill="#f4f5f6" stroke="#b5bac0" stroke-width="1.5"/>
<text font-size="9" fill="#444444" text-anchor="start"><tspan x="1231.0" y="102.7">not reached</tspan></text>
<rect x="1200.0" y="114.0" width="22.0" height="11.0" fill="#fff8e1" stroke="#8a6d00" stroke-dasharray="6 3" stroke-width="2"/>
<text font-size="9" fill="#444444" text-anchor="start"><tspan x="1231.0" y="122.7">informal (trilogues)</tspan></text>
<rect x="20.0" y="150.0" width="190.0" height="58.0" fill="#dce6f6" stroke="#2f5a9e" stroke-width="2.5"/>
<text font-size="11" fill="#1f2d3d" text-anchor="middle" font-weight="bold"><tspan x="115.0" y="167.8">Commission proposal</tspan></text>
<text font-size="9" fill="#555555" text-anchor="middle"><tspan x="115.0" y="199.2">Art. 294(2)</tspan></text>
<text font-size="9" fill="#2f5a9e" text-anchor="middle" font-weight="bold"><tspan x="115.0" y="220.2">16 Mar 2023</tspan></text>
<rect x="250.0" y="150.0" width="200.0" height="58.0" fill="#dce6f6" stroke="#2f5a9e" stroke-width="2.5"/>
<text font-size="11" fill="#1f2d3d" text-anchor="middle" font-weight="bold"><tspan x="350.0" y="167.8">EP position at first reading</tspan></text>
<text font-size="9" fill="#555555" text-anchor="middle"><tspan x="350.0" y="199.2">Art. 294(3)</tspan></text>
<text font-size="9" fill="#2f5a9e" text-anchor="middle" font-weight="bold"><tspan x="350.0" y="220.2">25 Apr 2024</tspan></text>
<rect x="490.0" y="150.0" width="210.0" height="58.0" fill="#dce6f6" stroke="#2f5a9e" stroke-width="2.5"/>
<text font-size="11" fill="#1f2d3d" text-anchor="middle" font-weight="bold"><tspan x="595.0" y="167.8">Council approves the EP position?</tspan></text>
<text font-size="9" fill="#555555" text-anchor="middle"><tspan x="595.0" y="199.2">Art. 294(4)</tspan></text>
<rect x="740.0" y="150.0" width="230.0" height="58.0" fill="#dce6f6" stroke="#2f5a9e" stroke-width="2.5"/>
<text font-size="11" fill="#1f2d3d" text-anchor="middle" font-weight="bold"><tspan x="855.0" y="161.0">Act adopted in the wording of the EP</tspan><tspan x="855.0" y="174.7">position</tspan></text>
<text font-size="9" fill="#555555" text-anchor="middle"><tspan x="855.0" y="199.2">Art. 294(4)</tspan></text>
<text font-size="9" fill="#2f5a9e" text-anchor="middle" font-weight="bold"><tspan x="855.0" y="220.2">signed 13 Jun 2024</tspan></text>
<rect x="490.0" y="262.0" width="210.0" height="58.0" fill="#f4f5f6" stroke="#b5bac0" stroke-width="1"/>
<text font-size="11" fill="#6f757b" text-anchor="middle"><tspan x="595.0" y="279.9">Council position at first reading</tspan></text>
<text font-size="9" fill="#9aa0a6" text-anchor="middle"><tspan x="595.0" y="311.1">Art. 294(5), (6)</tspan></text>
<rect x="740.0" y="262.0" width="230.0" height="58.0" fill="#f4f5f6" stroke="#b5bac0" stroke-width="1"/>
<text font-size="11" fill="#6f757b" text-anchor="middle"><tspan x="855.0" y="279.9">EP second reading, 3 (+1) months</tspan></text>
<text font-size="9" fill="#9aa0a6" text-anchor="middle"><tspan x="855.0" y="311.1">Art. 294(7), (14)</tspan></text>
<rect x="1010.0" y="262.0" width="230.0" height="58.0" fill="#f4f5f6" stroke="#b5bac0" stroke-width="1"/>
<text font-size="11" fill="#6f757b" text-anchor="middle"><tspan x="1125.0" y="279.9">Council second reading, 3 (+1) months</tspan></text>
<text font-size="9" fill="#9aa0a6" text-anchor="middle"><tspan x="1125.0" y="311.1">Art. 294(8), (9), (14)</tspan></text>
<rect x="1280.0" y="262.0" width="230.0" height="58.0" fill="#f4f5f6" stroke="#b5bac0" stroke-width="1"/>
<text font-size="11" fill="#6f757b" text-anchor="middle"><tspan x="1395.0" y="279.9">Conciliation Committee, 6 (+2) weeks</tspan></text>
<text font-size="9" fill="#9aa0a6" text-anchor="middle"><tspan x="1395.0" y="311.1">Art. 294(10)–(12), (14)</tspan></text>
<rect x="1550.0" y="262.0" width="230.0" height="58.0" fill="#f4f5f6" stroke="#b5bac0" stroke-width="1"/>
<text font-size="11" fill="#6f757b" text-anchor="middle"><tspan x="1665.0" y="273.0">Third reading: EP and Council, 6 (+2)</tspan><tspan x="1665.0" y="286.7">weeks</tspan></text>
<text font-size="9" fill="#9aa0a6" text-anchor="middle"><tspan x="1665.0" y="311.1">Art. 294(13), (14)</tspan></text>
<text font-size="9" fill="#6f757b" text-anchor="middle"><tspan x="855.0" y="338.5">approves or no decision → adopted (7a); rejects</tspan><tspan x="855.0" y="349.8">→ not adopted (7b)</tspan></text>
<text font-size="9" fill="#6f757b" text-anchor="middle"><tspan x="1125.0" y="344.1">approves all amendments → adopted (8a)</tspan></text>
<text font-size="9" fill="#6f757b" text-anchor="middle"><tspan x="1395.0" y="344.1">no joint text → not adopted (12)</tspan></text>
<text font-size="9" fill="#6f757b" text-anchor="middle"><tspan x="1665.0" y="338.5">both adopt → adopted; otherwise not adopted</tspan><tspan x="1665.0" y="349.8">(13)</tspan></text>
<polyline points="210.0,179.0 250.0,179.0" fill="none" stroke="#2f5a9e" stroke-width="2.5"/><polygon points="250.0,179.0 241.0,183.5 241.0,174.5" fill="#2f5a9e"/>
<polyline points="450.0,179.0 490.0,179.0" fill="none" stroke="#2f5a9e" stroke-width="2.5"/><polygon points="490.0,179.0 481.0,183.5 481.0,174.5" fill="#2f5a9e"/>
<polyline points="700.0,179.0 740.0,179.0" fill="none" stroke="#2f5a9e" stroke-width="2.5"/><polygon points="740.0,179.0 731.0,183.5 731.0,174.5" fill="#2f5a9e"/>
<text font-size="9" fill="#2f5a9e" text-anchor="start" font-weight="bold"><tspan x="706.0" y="168.2">yes</tspan></text>
<polyline points="595.0,224.0 595.0,262.0" fill="none" stroke="#b5bac0" stroke-width="1.2"/><polygon points="595.0,262.0 590.5,253.0 599.5,253.0" fill="#b5bac0"/>
<text font-size="9" fill="#b5bac0" text-anchor="start"><tspan x="603.0" y="245.2">no</tspan></text>
<polyline points="700.0,291.0 740.0,291.0" fill="none" stroke="#b5bac0" stroke-width="1.2"/><polygon points="740.0,291.0 731.0,295.5 731.0,286.5" fill="#b5bac0"/>
<polyline points="970.0,291.0 1010.0,291.0" fill="none" stroke="#b5bac0" stroke-width="1.2"/><polygon points="1010.0,291.0 1001.0,295.5 1001.0,286.5" fill="#b5bac0"/>
<polyline points="1240.0,291.0 1280.0,291.0" fill="none" stroke="#b5bac0" stroke-width="1.2"/><polygon points="1280.0,291.0 1271.0,295.5 1271.0,286.5" fill="#b5bac0"/>
<polyline points="1510.0,291.0 1550.0,291.0" fill="none" stroke="#b5bac0" stroke-width="1.2"/><polygon points="1550.0,291.0 1541.0,295.5 1541.0,286.5" fill="#b5bac0"/>
<text font-size="9" fill="#b5bac0" text-anchor="start"><tspan x="976.0" y="280.1">amends</tspan></text>
<text font-size="9" fill="#b5bac0" text-anchor="start"><tspan x="1246.0" y="280.1">not all</tspan></text>
<rect x="250.0" y="96.0" width="720.0" height="40.0" fill="#fff8e1" stroke="#8a6d00" stroke-dasharray="6 3" stroke-width="2"/>
<text font-size="9" fill="#8a6d00" text-anchor="start"><tspan x="254.0" y="113.5">Informal: trilogues of EP, Council and Commission at every stage (Joint Declaration 2007, points 7–9); a trilogue agreement confirmed by Coreper and</tspan><tspan x="254.0" y="124.8">offered by letter to the EP committee chair (point 14) leads to adoption at first reading, or, after the EP first reading, to an early second reading.</tspan></text>
<text font-size="13" fill="#222222" text-anchor="start" font-weight="bold"><tspan x="24.0" y="400.6">Procedure over time – 2023/0081(COD)</tspan></text>
<polygon points="1018,389 1025,396 1018,403 1011,396" fill="#2f5a9e" stroke="#2f5a9e" stroke-width="1.5"/>
<text font-size="9" fill="#444444" text-anchor="start"><tspan x="1034.0" y="398.6">step of Art. 294 TFEU</tspan></text>
<polygon points="1180,391 1185,396 1180,401 1175,396" fill="#ffffff" stroke="#222222" stroke-width="1.5"/>
<text font-size="9" fill="#444444" text-anchor="start"><tspan x="1194.0" y="398.6">other event</tspan></text>
<polygon points="1264,392.5 1267.5,396 1264,399.5 1260.5,396" fill="#555555" stroke="#555555" stroke-width="1.5"/>
<text font-size="9" fill="#444444" text-anchor="start"><tspan x="1276.0" y="398.6">working party meeting</tspan></text>
<rect x="1390.0" y="391.0" width="26.0" height="10.0" fill="#7b8794" stroke="none" opacity="0.3"/>
<text font-size="9" fill="#444444" text-anchor="start"><tspan x="1424.0" y="398.6">phase</tspan></text>
<line x1="210.0" y1="440.0" x2="210.0" y2="887.0" stroke="#e3e6e9" stroke-width="1"/>
<line x1="303.8" y1="440.0" x2="303.8" y2="887.0" stroke="#e3e6e9" stroke-width="1"/>
<text font-size="9" fill="#555555" text-anchor="middle"><tspan x="303.8" y="435.1">Apr</tspan></text>
<line x1="394.5" y1="440.0" x2="394.5" y2="887.0" stroke="#e3e6e9" stroke-width="1"/>
<line x1="488.3" y1="440.0" x2="488.3" y2="887.0" stroke="#e3e6e9" stroke-width="1"/>
<line x1="579.1" y1="440.0" x2="579.1" y2="887.0" stroke="#e3e6e9" stroke-width="1"/>
<text font-size="9" fill="#555555" text-anchor="middle"><tspan x="579.1" y="435.1">Jul</tspan></text>
<line x1="672.8" y1="440.0" x2="672.8" y2="887.0" stroke="#e3e6e9" stroke-width="1"/>
<line x1="766.6" y1="440.0" x2="766.6" y2="887.0" stroke="#e3e6e9" stroke-width="1"/>
<line x1="857.4" y1="440.0" x2="857.4" y2="887.0" stroke="#e3e6e9" stroke-width="1"/>
<text font-size="9" fill="#555555" text-anchor="middle"><tspan x="857.4" y="435.1">Oct</tspan></text>
<line x1="951.1" y1="440.0" x2="951.1" y2="887.0" stroke="#e3e6e9" stroke-width="1"/>
<line x1="1041.9" y1="440.0" x2="1041.9" y2="887.0" stroke="#e3e6e9" stroke-width="1"/>
<line x1="1135.7" y1="440.0" x2="1135.7" y2="887.0" stroke="#b5bac0" stroke-width="1"/>
<text font-size="9" fill="#555555" text-anchor="middle" font-weight="bold"><tspan x="1135.7" y="435.1">Jan 2024</tspan></text>
<line x1="1229.4" y1="440.0" x2="1229.4" y2="887.0" stroke="#e3e6e9" stroke-width="1"/>
<line x1="1317.2" y1="440.0" x2="1317.2" y2="887.0" stroke="#e3e6e9" stroke-width="1"/>
<line x1="1410.9" y1="440.0" x2="1410.9" y2="887.0" stroke="#e3e6e9" stroke-width="1"/>
<text font-size="9" fill="#555555" text-anchor="middle"><tspan x="1410.9" y="435.1">Apr</tspan></text>
<line x1="1501.7" y1="440.0" x2="1501.7" y2="887.0" stroke="#e3e6e9" stroke-width="1"/>
<line x1="1595.5" y1="440.0" x2="1595.5" y2="887.0" stroke="#e3e6e9" stroke-width="1"/>
<line x1="1686.2" y1="440.0" x2="1686.2" y2="887.0" stroke="#e3e6e9" stroke-width="1"/>
<text font-size="9" fill="#555555" text-anchor="middle"><tspan x="1686.2" y="435.1">Jul</tspan></text>
<line x1="1780.0" y1="440.0" x2="1780.0" y2="887.0" stroke="#e3e6e9" stroke-width="1"/>
<rect x="20.0" y="440.0" width="1760.0" height="50.0" fill="#ffffff" stroke="#eceef0"/>
<rect x="20.0" y="444.0" width="6.0" height="42.0" fill="#2a78d6" stroke="none"/>
<text font-size="11" fill="#222222" text-anchor="start" font-weight="bold"><tspan x="34.0" y="468.9">European Commission</tspan></text>
<rect x="20.0" y="490.0" width="1760.0" height="63.0" fill="#fafbfc" stroke="#eceef0"/>
<rect x="20.0" y="494.0" width="6.0" height="55.0" fill="#7b8794" stroke="none"/>
<text font-size="11" fill="#222222" text-anchor="start" font-weight="bold"><tspan x="34.0" y="525.4">Consultative bodies</tspan></text>
<rect x="20.0" y="553.0" width="1760.0" height="154.0" fill="#ffffff" stroke="#eceef0"/>
<rect x="20.0" y="557.0" width="6.0" height="146.0" fill="#1baf7a" stroke="none"/>
<text font-size="11" fill="#222222" text-anchor="start" font-weight="bold"><tspan x="34.0" y="633.9">European Parliament</tspan></text>
<rect x="20.0" y="707.0" width="1760.0" height="28.0" fill="#fafbfc" stroke="#eceef0"/>
<rect x="20.0" y="711.0" width="6.0" height="20.0" fill="#eda100" stroke="none" opacity="0.35"/>
<text font-size="11" fill="#8a9097" text-anchor="start"><tspan x="34.0" y="724.9">Trilogues (informal)</tspan></text>
<text font-size="9" fill="#8a9097" text-anchor="start"><tspan x="222.0" y="724.1">no events</tspan></text>
<rect x="20.0" y="735.0" width="1760.0" height="89.0" fill="#ffffff" stroke="#eceef0"/>
<rect x="20.0" y="739.0" width="6.0" height="81.0" fill="#4a3aa7" stroke="none"/>
<text font-size="11" fill="#222222" text-anchor="start" font-weight="bold"><tspan x="34.0" y="783.4">Council</tspan></text>
<rect x="20.0" y="824.0" width="1760.0" height="63.0" fill="#fafbfc" stroke="#eceef0"/>
<rect x="20.0" y="828.0" width="6.0" height="55.0" fill="#444444" stroke="none"/>
<text font-size="11" fill="#222222" text-anchor="start" font-weight="bold"><tspan x="34.0" y="859.4">Signature and publication</tspan></text>
<rect x="251.4" y="453.0" width="253.0" height="12.0" fill="#ffffff"/>
<a xlink:href="https://eur-lex.europa.eu/legal-content/EN/TXT/?uri=CELEX:52023PC0161" target="_blank"><text font-size="9" fill="#1f2d3d" text-anchor="start" font-weight="bold"><tspan x="255.4" y="462.1">16 Mar 2023 · Commission proposal (COM(2023) 161)</tspan></text></a>
<a xlink:href="https://eur-lex.europa.eu/legal-content/EN/TXT/?uri=CELEX:52023PC0161" target="_blank"><title>16 Mar 2023: Commission proposal – COM(2023) 161</title><polygon points="255.3757225433526,465 263.3757225433526,473 255.3757225433526,481 247.3757225433526,473" fill="#2a78d6" stroke="#1f2d3d" stroke-width="1.5"/></a>
<rect x="590.2" y="503.0" width="318.2" height="12.0" fill="#ffffff"/>
<a xlink:href="https://eur-lex.europa.eu/legal-content/EN/TXT/?uri=CELEX:52023AR2189" target="_blank"><text font-size="9" fill="#222222" text-anchor="start"><tspan x="594.2" y="512.1">06 Jul 2023 · Committee of the Regions opinion (CELEX 52023AR2189)</tspan></text></a>
<rect x="611.4" y="532.0" width="224.2" height="12.0" fill="#ffffff"/>
<a xlink:href="https://eur-lex.europa.eu/legal-content/EN/TXT/?uri=CELEX:52023AE1157" target="_blank"><text font-size="9" fill="#222222" text-anchor="start"><tspan x="615.4" y="541.1">13 Jul 2023 · EESC opinion (CELEX 52023AE1157)</tspan></text></a>
<a xlink:href="https://eur-lex.europa.eu/legal-content/EN/TXT/?uri=CELEX:52023AR2189" target="_blank"><title>06 Jul 2023: Committee of the Regions opinion – CELEX 52023AR2189</title><polygon points="594.1811175337186,517.5 599.6811175337186,523 594.1811175337186,528.5 588.6811175337186,523" fill="#ffffff" stroke="#7b8794" stroke-width="1.5"/></a>
<a xlink:href="https://eur-lex.europa.eu/legal-content/EN/TXT/?uri=CELEX:52023AE1157" target="_blank"><title>13 Jul 2023: EESC opinion – CELEX 52023AE1157</title><polygon points="615.3564547206166,517.5 620.8564547206166,523 615.3564547206166,528.5 609.8564547206166,523" fill="#ffffff" stroke="#7b8794" stroke-width="1.5"/></a>
<line x1="470.2" y1="618.0" x2="470.2" y2="632.0" stroke="#c3c8cd" stroke-width="1"/>
<line x1="633.5" y1="660.0" x2="633.5" y2="644.0" stroke="#c3c8cd" stroke-width="1"/>
<line x1="821.1" y1="618.0" x2="821.1" y2="632.0" stroke="#c3c8cd" stroke-width="1"/>
<line x1="824.1" y1="605.0" x2="824.1" y2="632.0" stroke="#c3c8cd" stroke-width="1"/>
<line x1="824.1" y1="673.0" x2="824.1" y2="644.0" stroke="#c3c8cd" stroke-width="1"/>
<line x1="824.1" y1="592.0" x2="824.1" y2="632.0" stroke="#c3c8cd" stroke-width="1"/>
<line x1="969.3" y1="660.0" x2="969.3" y2="644.0" stroke="#c3c8cd" stroke-width="1"/>
<line x1="1011.6" y1="686.0" x2="1011.6" y2="644.0" stroke="#c3c8cd" stroke-width="1"/>
<line x1="1011.6" y1="579.0" x2="1011.6" y2="632.0" stroke="#c3c8cd" stroke-width="1"/>
<rect x="1472.0" y="618.0" width="308.0" height="12.0" fill="#ffffff"/>
<a xlink:href="https://data.europarl.europa.eu/distribution/doc/TA-9-2024-0378_en.pdf" target="_blank"><text font-size="9" fill="#1f2d3d" text-anchor="start" font-weight="bold"><tspan x="1476.0" y="627.1">25 Apr 2024 · EP position at first reading (P9_TA(2024)0378)</tspan></text></a>
<rect x="293.7" y="618.0" width="299.4" height="12.0" fill="#ffffff"/>
<text font-size="9" fill="#222222" text-anchor="start"><tspan x="297.7" y="627.1">30 Mar 2023 · ITRE rapporteur appointed (Christian Ehler, PPE)</tspan></text>
<rect x="411.7" y="647.0" width="271.2" height="12.0" fill="#ffffff"/>
<text font-size="9" fill="#222222" text-anchor="start"><tspan x="415.7" y="656.1">08 May 2023 · Referral to committee announced in plenary</tspan></text>
<rect x="466.2" y="605.0" width="210.1" height="12.0" fill="#ffffff"/>
<a xlink:href="https://data.europarl.europa.eu/distribution/reds_iCmRp-Dft/ITRE-PR-749154/ITRE-PR-749154_en.pdf" target="_blank"><text font-size="9" fill="#222222" text-anchor="start"><tspan x="470.2" y="614.1">26 May 2023 · ITRE draft report (PE749.154)</tspan></text></a>
<rect x="629.5" y="618.0" width="224.2" height="12.0" fill="#ffffff"/>
<a xlink:href="https://data.europarl.europa.eu/distribution/reds_iCmOp/INTA-AD-748987/INTA-AD-748987_en.pdf" target="_blank"><text font-size="9" fill="#222222" text-anchor="start"><tspan x="633.5" y="627.1">19 Jul 2023 · INTA opinion adopted (PE748.987)</tspan></text></a>
<rect x="629.5" y="660.0" width="224.2" height="12.0" fill="#ffffff"/>
<a xlink:href="https://data.europarl.europa.eu/distribution/reds_iCmOp/TRAN-AD-749959/TRAN-AD-749959_en.pdf" target="_blank"><text font-size="9" fill="#222222" text-anchor="start"><tspan x="633.5" y="669.1">19 Jul 2023 · TRAN opinion adopted (PE749.959)</tspan></text></a>
<rect x="817.1" y="647.0" width="224.2" height="12.0" fill="#ffffff"/>
<a xlink:href="https://data.europarl.europa.eu/distribution/reds_iCmOp/EMPL-AD-749069/EMPL-AD-749069_en.pdf" target="_blank"><text font-size="9" fill="#222222" text-anchor="start"><tspan x="821.1" y="656.1">19 Sep 2023 · EMPL opinion adopted (PE749.069)</tspan></text></a>
<rect x="817.1" y="605.0" width="224.2" height="12.0" fill="#ffffff"/>
<a xlink:href="https://data.europarl.europa.eu/distribution/reds_iCmOp/IMCO-AD-752781/IMCO-AD-752781_en.pdf" target="_blank"><text font-size="9" fill="#222222" text-anchor="start"><tspan x="821.1" y="614.1">19 Sep 2023 · IMCO opinion adopted (PE752.781)</tspan></text></a>
<rect x="820.1" y="592.0" width="224.2" height="12.0" fill="#ffffff"/>
<a xlink:href="https://data.europarl.europa.eu/distribution/reds_iCmOp/ENVI-AD-753533/ENVI-AD-753533_en.pdf" target="_blank"><text font-size="9" fill="#222222" text-anchor="start"><tspan x="824.1" y="601.1">20 Sep 2023 · ENVI opinion adopted (PE753.533)</tspan></text></a>
<rect x="820.1" y="673.0" width="224.2" height="12.0" fill="#ffffff"/>
<a xlink:href="https://data.europarl.europa.eu/distribution/reds_iCmOp/REGI-AD-753568/REGI-AD-753568_en.pdf" target="_blank"><text font-size="9" fill="#222222" text-anchor="start"><tspan x="824.1" y="682.1">20 Sep 2023 · REGI opinion adopted (PE753.568)</tspan></text></a>
<rect x="820.1" y="579.0" width="224.2" height="12.0" fill="#ffffff"/>
<a xlink:href="https://data.europarl.europa.eu/distribution/reds_iCmOp/ECON-AD-749279/ECON-AD-749279_en.pdf" target="_blank"><text font-size="9" fill="#222222" text-anchor="start"><tspan x="824.1" y="588.1">20 Sep 2023 · ECON opinion adopted (PE749.279)</tspan></text></a>
<rect x="926.0" y="618.0" width="238.3" height="12.0" fill="#ffffff"/>
<text font-size="9" fill="#222222" text-anchor="start"><tspan x="930.0" y="627.1">25 Oct 2023 · Committee adopts report and mandate</tspan></text>
<rect x="965.3" y="660.0" width="261.8" height="12.0" fill="#ffffff"/>
<a xlink:href="https://data.europarl.europa.eu/distribution/reds_iPlRp/A-9-2023-0343/A-9-2023-0343_en.pdf" target="_blank"><text font-size="9" fill="#222222" text-anchor="start"><tspan x="969.3" y="669.1">07 Nov 2023 · Report tabled for plenary (A9-0343/2023)</tspan></text></a>
<rect x="1007.6" y="686.0" width="228.9" height="12.0" fill="#ffffff"/>
<text font-size="9" fill="#222222" text-anchor="start"><tspan x="1011.6" y="695.1">21 Nov 2023 · Plenary refers back for trilogues</tspan></text>
<rect x="1007.6" y="566.0" width="388.7" height="12.0" fill="#ffffff"/>
<a xlink:href="https://data.europarl.europa.eu/distribution/reds_iPlTa_Itm/TA-9-2023-0401/TA-9-2023-0401-FNL_en.pdf" target="_blank"><text font-size="9" fill="#222222" text-anchor="start"><tspan x="1011.6" y="575.1">21 Nov 2023 · Plenary adopts amendments (mandate for trilogues) (P9_TA(2023)0401)</tspan></text></a>
<rect x="1289.0" y="647.0" width="261.8" height="12.0" fill="#ffffff"/>
<text font-size="9" fill="#222222" text-anchor="start"><tspan x="1293.0" y="656.1">22 Feb 2024 · Committee approves provisional agreement</tspan></text>
<g><title>30 Mar 2023: ITRE rapporteur appointed (Christian Ehler, PPE)</title><polygon points="297.72639691714835,632.5 303.22639691714835,638 297.72639691714835,643.5 292.22639691714835,638" fill="#ffffff" stroke="#1baf7a" stroke-width="1.5"/></g>
<g><title>08 May 2023: Referral to committee announced in plenary</title><polygon points="415.7032755298651,632.5 421.2032755298651,638 415.7032755298651,643.5 410.2032755298651,638" fill="#ffffff" stroke="#1baf7a" stroke-width="1.5"/></g>
<a xlink:href="https://data.europarl.europa.eu/distribution/reds_iCmRp-Dft/ITRE-PR-749154/ITRE-PR-749154_en.pdf" target="_blank"><title>26 May 2023: ITRE draft report – PE749.154</title><polygon points="470.15414258188827,632.5 475.65414258188827,638 470.15414258188827,643.5 464.65414258188827,638" fill="#ffffff" stroke="#1baf7a" stroke-width="1.5"/></a>
<a xlink:href="https://data.europarl.europa.eu/distribution/reds_iCmOp/INTA-AD-748987/INTA-AD-748987_en.pdf" target="_blank"><title>19 Jul 2023: INTA opinion adopted – PE748.987</title><polygon points="633.5067437379575,632.5 639.0067437379575,638 633.5067437379575,643.5 628.0067437379575,638" fill="#ffffff" stroke="#1baf7a" stroke-width="1.5"/></a>
<a xlink:href="https://data.europarl.europa.eu/distribution/reds_iCmOp/TRAN-AD-749959/TRAN-AD-749959_en.pdf" target="_blank"><title>19 Jul 2023: TRAN opinion adopted – PE749.959</title><polygon points="633.5067437379575,632.5 639.0067437379575,638 633.5067437379575,643.5 628.0067437379575,638" fill="#ffffff" stroke="#1baf7a" stroke-width="1.5"/></a>
<a xlink:href="https://data.europarl.europa.eu/distribution/reds_iCmOp/EMPL-AD-749069/EMPL-AD-749069_en.pdf" target="_blank"><title>19 Sep 2023: EMPL opinion adopted – PE749.069</title><polygon points="821.0597302504817,632.5 826.5597302504817,638 821.0597302504817,643.5 815.5597302504817,638" fill="#ffffff" stroke="#1baf7a" stroke-width="1.5"/></a>
<a xlink:href="https://data.europarl.europa.eu/distribution/reds_iCmOp/IMCO-AD-752781/IMCO-AD-752781_en.pdf" target="_blank"><title>19 Sep 2023: IMCO opinion adopted – PE752.781</title><polygon points="821.0597302504817,632.5 826.5597302504817,638 821.0597302504817,643.5 815.5597302504817,638" fill="#ffffff" stroke="#1baf7a" stroke-width="1.5"/></a>
<a xlink:href="https://data.europarl.europa.eu/distribution/reds_iCmOp/ENVI-AD-753533/ENVI-AD-753533_en.pdf" target="_blank"><title>20 Sep 2023: ENVI opinion adopted – PE753.533</title><polygon points="824.0847784200386,632.5 829.5847784200386,638 824.0847784200386,643.5 818.5847784200386,638" fill="#ffffff" stroke="#1baf7a" stroke-width="1.5"/></a>
<a xlink:href="https://data.europarl.europa.eu/distribution/reds_iCmOp/REGI-AD-753568/REGI-AD-753568_en.pdf" target="_blank"><title>20 Sep 2023: REGI opinion adopted – PE753.568</title><polygon points="824.0847784200386,632.5 829.5847784200386,638 824.0847784200386,643.5 818.5847784200386,638" fill="#ffffff" stroke="#1baf7a" stroke-width="1.5"/></a>
<a xlink:href="https://data.europarl.europa.eu/distribution/reds_iCmOp/ECON-AD-749279/ECON-AD-749279_en.pdf" target="_blank"><title>20 Sep 2023: ECON opinion adopted – PE749.279</title><polygon points="824.0847784200386,632.5 829.5847784200386,638 824.0847784200386,643.5 818.5847784200386,638" fill="#ffffff" stroke="#1baf7a" stroke-width="1.5"/></a>
<g><title>25 Oct 2023: Committee adopts report and mandate</title><polygon points="929.961464354528,632.5 935.461464354528,638 929.961464354528,643.5 924.461464354528,638" fill="#ffffff" stroke="#1baf7a" stroke-width="1.5"/></g>
<a xlink:href="https://data.europarl.europa.eu/distribution/reds_iPlRp/A-9-2023-0343/A-9-2023-0343_en.pdf" target="_blank"><title>07 Nov 2023: Report tabled for plenary – A9-0343/2023</title><polygon points="969.2870905587669,632.5 974.7870905587669,638 969.2870905587669,643.5 963.7870905587669,638" fill="#ffffff" stroke="#1baf7a" stroke-width="1.5"/></a>
<g><title>21 Nov 2023: Plenary refers back for trilogues</title><polygon points="1011.6377649325626,632.5 1017.1377649325626,638 1011.6377649325626,643.5 1006.1377649325626,638" fill="#ffffff" stroke="#1baf7a" stroke-width="1.5"/></g>
<a xlink:href="https://data.europarl.europa.eu/distribution/reds_iPlTa_Itm/TA-9-2023-0401/TA-9-2023-0401-FNL_en.pdf" target="_blank"><title>21 Nov 2023: Plenary adopts amendments (mandate for trilogues) – P9_TA(2023)0401</title><polygon points="1011.6377649325626,632.5 1017.1377649325626,638 1011.6377649325626,643.5 1006.1377649325626,638" fill="#ffffff" stroke="#1baf7a" stroke-width="1.5"/></a>
<g><title>22 Feb 2024: Committee approves provisional agreement</title><polygon points="1292.9672447013486,632.5 1298.4672447013486,638 1292.9672447013486,643.5 1287.4672447013486,638" fill="#ffffff" stroke="#1baf7a" stroke-width="1.5"/></g>
<a xlink:href="https://data.europarl.europa.eu/distribution/doc/TA-9-2024-0378_en.pdf" target="_blank"><title>25 Apr 2024: EP position at first reading – P9_TA(2024)0378</title><polygon points="1483.5452793834295,630 1491.5452793834295,638 1483.5452793834295,646 1475.5452793834295,638" fill="#1baf7a" stroke="#1f2d3d" stroke-width="1.5"/></a>
<line x1="1247.6" y1="761.0" x2="1247.6" y2="775.0" stroke="#c3c8cd" stroke-width="1"/>
<line x1="1271.8" y1="803.0" x2="1271.8" y2="787.0" stroke="#c3c8cd" stroke-width="1"/>
<rect x="1034.9" y="761.0" width="510.9" height="12.0" fill="#ffffff"/>
<a xlink:href="https://data.consilium.europa.eu/doc/document/ST-16056-2023-INIT/en/pdf" target="_blank"><text font-size="9" fill="#222222" text-anchor="start"><tspan x="1038.9" y="770.1">30 Nov 2023 · Regulation on establishing a framework of measures for strengthening Europe’s … (ST 16056/23)</tspan></text></a>
<rect x="1174.0" y="790.0" width="214.8" height="12.0" fill="#ffffff"/>
<a xlink:href="https://data.consilium.europa.eu/doc/document/ST-5334-2024-INIT/en/pdf" target="_blank"><text font-size="9" fill="#222222" text-anchor="start"><tspan x="1178.0" y="799.1">15 Jan 2024 · 4-column document (ST 5334/24)</tspan></text></a>
<rect x="1243.6" y="748.0" width="426.3" height="12.0" fill="#ffffff"/>
<a xlink:href="https://data.consilium.europa.eu/doc/document/ST-6266-2024-INIT/en/pdf" target="_blank"><text font-size="9" fill="#222222" text-anchor="start"><tspan x="1247.6" y="757.1">07 Feb 2024 · Analysis of the final compromise text with a view to agreement (ST 6266/24)</tspan></text></a>
<rect x="1267.8" y="803.0" width="454.5" height="12.0" fill="#ffffff"/>
<a xlink:href="https://data.consilium.europa.eu/doc/document/ST-6266-2024-COR-1/en/pdf" target="_blank"><text font-size="9" fill="#222222" text-anchor="start"><tspan x="1271.8" y="812.1">15 Feb 2024 · Analysis of the final compromise text with a view to agreement (ST 6266/24 COR 1)</tspan></text></a>
<a xlink:href="https://data.consilium.europa.eu/doc/document/ST-16056-2023-INIT/en/pdf" target="_blank"><title>30 Nov 2023: Regulation on establishing a framework of measures for strengthening Europe’s net-zero … – ST 16056/23</title><polygon points="1038.8631984585743,775.5 1044.3631984585743,781 1038.8631984585743,786.5 1033.3631984585743,781" fill="#ffffff" stroke="#4a3aa7" stroke-width="1.5"/></a>
<a xlink:href="https://data.consilium.europa.eu/doc/document/ST-5334-2024-INIT/en/pdf" target="_blank"><title>15 Jan 2024: 4-column document – ST 5334/24</title><polygon points="1178.0154142581887,775.5 1183.5154142581887,781 1178.0154142581887,786.5 1172.5154142581887,781" fill="#ffffff" stroke="#4a3aa7" stroke-width="1.5"/></a>
<a xlink:href="https://data.consilium.europa.eu/doc/document/ST-6266-2024-INIT/en/pdf" target="_blank"><title>07 Feb 2024: Analysis of the final compromise text with a view to agreement – ST 6266/24</title><polygon points="1247.5915221579962,775.5 1253.0915221579962,781 1247.5915221579962,786.5 1242.0915221579962,781" fill="#ffffff" stroke="#4a3aa7" stroke-width="1.5"/></a>
<a xlink:href="https://data.consilium.europa.eu/doc/document/ST-6266-2024-COR-1/en/pdf" target="_blank"><title>15 Feb 2024: Analysis of the final compromise text with a view to agreement – ST 6266/24 COR 1</title><polygon points="1271.791907514451,775.5 1277.291907514451,781 1271.791907514451,786.5 1266.291907514451,781" fill="#ffffff" stroke="#4a3aa7" stroke-width="1.5"/></a>
<rect x="1494.7" y="837.0" width="285.3" height="12.0" fill="#ffffff"/>
<text font-size="9" fill="#222222" text-anchor="start"><tspan x="1498.7" y="846.1">13 Jun 2024 · Signature by the Presidents of EP and Council</tspan></text>
<rect x="1461.8" y="866.0" width="318.2" height="12.0" fill="#ffffff"/>
<a xlink:href="https://eur-lex.europa.eu/legal-content/EN/TXT/?uri=CELEX:32024R1735" target="_blank"><text font-size="9" fill="#222222" text-anchor="start"><tspan x="1465.8" y="875.1">28 Jun 2024 · Published in the Official Journal (CELEX 32024R1735)</tspan></text></a>
<g><title>13 Jun 2024: Signature by the Presidents of EP and Council</title><polygon points="1631.7726396917149,851.5 1637.2726396917149,857 1631.7726396917149,862.5 1626.2726396917149,857" fill="#ffffff" stroke="#444444" stroke-width="1.5"/></g>
<a xlink:href="https://eur-lex.europa.eu/legal-content/EN/TXT/?uri=CELEX:32024R1735" target="_blank"><title>28 Jun 2024: Published in the Official Journal – CELEX 32024R1735</title><polygon points="1677.1483622350675,851.5 1682.6483622350675,857 1677.1483622350675,862.5 1671.6483622350675,857" fill="#ffffff" stroke="#444444" stroke-width="1.5"/></a>
<text font-size="11" fill="#222222" text-anchor="start" font-weight="bold"><tspan x="24.0" y="918.9">Notes</tspan></text>
<text font-size="9" fill="#6f757b" text-anchor="start"><tspan x="24.0" y="936.1">Labels are shortened; the procedure page lists every event in full with its document and source. Sources: EP Open Data API (procedure events), Cellar procedure file, Council register documents and agendas, EUR-Lex. Our own compilation, not an official record.</tspan></text>
</g>
</svg>
