<svg xmlns="http://www.w3.org/2000/svg" xmlns:xlink="http://www.w3.org/1999/xlink" width="1800" height="1004" viewBox="0 0 1800 1004" font-family="Helvetica, Arial, sans-serif">
<rect width="1800" height="1004" fill="#ffffff"/>
<text font-size="18" fill="#222222" text-anchor="start" font-weight="bold"><tspan x="24.0" y="28.3">Legislative procedure – PLD – Directive (EU) 2024/2853</tspan></text>
<text font-size="11" fill="#555555" text-anchor="start"><tspan x="24.0" y="48.9">Procedure 2022/0302(COD). Upper part: the ordinary legislative procedure (Art. 294 TFEU); the route this act took is highlighted. Lower part: the act&#x27;s procedure over time. Every event cites its source (see pld.html).</tspan></text>
<text font-size="13" fill="#222222" text-anchor="start" font-weight="bold"><tspan x="24.0" y="82.5">Ordinary legislative procedure (Art. 294 TFEU)</tspan></text>
<rect x="20.0" y="150.0" width="190.0" height="58.0" fill="#dce6f6" stroke="#2f5a9e" stroke-width="2.5"/>
<text font-size="11" fill="#1f2d3d" text-anchor="middle" font-weight="bold"><tspan x="115.0" y="167.8">Commission proposal</tspan></text>
<text font-size="9" fill="#555555" text-anchor="middle"><tspan x="115.0" y="199.2">Art. 294(2)</tspan></text>
<rect x="250.0" y="150.0" width="200.0" height="58.0" fill="#dce6f6" stroke="#2f5a9e" stroke-width="2.5"/>
<text font-size="11" fill="#1f2d3d" text-anchor="middle" font-weight="bold"><tspan x="350.0" y="167.8">EP position at first reading</tspan></text>
<text font-size="9" fill="#555555" text-anchor="middle"><tspan x="350.0" y="199.2">Art. 294(3)</tspan></text>
<text font-size="9" fill="#2f5a9e" text-anchor="middle" font-weight="bold"><tspan x="350.0" y="220.2">12 Mar 2024</tspan></text>
<rect x="490.0" y="150.0" width="210.0" height="58.0" fill="#dce6f6" stroke="#2f5a9e" stroke-width="2.5"/>
<text font-size="11" fill="#1f2d3d" text-anchor="middle" font-weight="bold"><tspan x="595.0" y="167.8">Council approves the EP position?</tspan></text>
<text font-size="9" fill="#555555" text-anchor="middle"><tspan x="595.0" y="199.2">Art. 294(4)</tspan></text>
<rect x="740.0" y="150.0" width="230.0" height="58.0" fill="#dce6f6" stroke="#2f5a9e" stroke-width="2.5"/>
<text font-size="11" fill="#1f2d3d" text-anchor="middle" font-weight="bold"><tspan x="855.0" y="161.0">Act adopted in the wording of the EP</tspan><tspan x="855.0" y="174.7">position</tspan></text>
<text font-size="9" fill="#555555" text-anchor="middle"><tspan x="855.0" y="199.2">Art. 294(4)</tspan></text>
<text font-size="9" fill="#2f5a9e" text-anchor="middle" font-weight="bold"><tspan x="855.0" y="220.2">signed 23 Oct 2024</tspan></text>
<rect x="490.0" y="262.0" width="210.0" height="58.0" fill="#f4f5f6" stroke="#b5bac0" stroke-width="1"/>
<text font-size="11" fill="#6f757b" text-anchor="middle"><tspan x="595.0" y="279.9">Council position at first reading</tspan></text>
<text font-size="9" fill="#9aa0a6" text-anchor="middle"><tspan x="595.0" y="311.1">Art. 294(5), (6)</tspan></text>
<rect x="740.0" y="262.0" width="230.0" height="58.0" fill="#f4f5f6" stroke="#b5bac0" stroke-width="1"/>
<text font-size="11" fill="#6f757b" text-anchor="middle"><tspan x="855.0" y="279.9">EP second reading, 3 (+1) months</tspan></text>
<text font-size="9" fill="#9aa0a6" text-anchor="middle"><tspan x="855.0" y="311.1">Art. 294(7), (14)</tspan></text>
<rect x="1010.0" y="262.0" width="230.0" height="58.0" fill="#f4f5f6" stroke="#b5bac0" stroke-width="1"/>
<text font-size="11" fill="#6f757b" text-anchor="middle"><tspan x="1125.0" y="279.9">Council second reading, 3 (+1) months</tspan></text>
<text font-size="9" fill="#9aa0a6" text-anchor="middle"><tspan x="1125.0" y="311.1">Art. 294(8), (9), (14)</tspan></text>
<rect x="1280.0" y="262.0" width="230.0" height="58.0" fill="#f4f5f6" stroke="#b5bac0" stroke-width="1"/>
<text font-size="11" fill="#6f757b" text-anchor="middle"><tspan x="1395.0" y="279.9">Conciliation Committee, 6 (+2) weeks</tspan></text>
<text font-size="9" fill="#9aa0a6" text-anchor="middle"><tspan x="1395.0" y="311.1">Art. 294(10)–(12), (14)</tspan></text>
<rect x="1550.0" y="262.0" width="230.0" height="58.0" fill="#f4f5f6" stroke="#b5bac0" stroke-width="1"/>
<text font-size="11" fill="#6f757b" text-anchor="middle"><tspan x="1665.0" y="273.0">Third reading: EP and Council, 6 (+2)</tspan><tspan x="1665.0" y="286.7">weeks</tspan></text>
<text font-size="9" fill="#9aa0a6" text-anchor="middle"><tspan x="1665.0" y="311.1">Art. 294(13), (14)</tspan></text>
<text font-size="9" fill="#6f757b" text-anchor="middle"><tspan x="855.0" y="338.5">approves or no decision → adopted (7a); rejects</tspan><tspan x="855.0" y="349.8">→ not adopted (7b)</tspan></text>
<text font-size="9" fill="#6f757b" text-anchor="middle"><tspan x="1125.0" y="344.1">approves all amendments → adopted (8a)</tspan></text>
<text font-size="9" fill="#6f757b" text-anchor="middle"><tspan x="1395.0" y="344.1">no joint text → not adopted (12)</tspan></text>
<text font-size="9" fill="#6f757b" text-anchor="middle"><tspan x="1665.0" y="338.5">both adopt → adopted; otherwise not adopted</tspan><tspan x="1665.0" y="349.8">(13)</tspan></text>
<polyline points="210.0,179.0 250.0,179.0" fill="none" stroke="#2f5a9e" stroke-width="2.5"/><polygon points="250.0,179.0 241.0,183.5 241.0,174.5" fill="#2f5a9e"/>
<polyline points="450.0,179.0 490.0,179.0" fill="none" stroke="#2f5a9e" stroke-width="2.5"/><polygon points="490.0,179.0 481.0,183.5 481.0,174.5" fill="#2f5a9e"/>
<polyline points="700.0,179.0 740.0,179.0" fill="none" stroke="#2f5a9e" stroke-width="2.5"/><polygon points="740.0,179.0 731.0,183.5 731.0,174.5" fill="#2f5a9e"/>
<text font-size="9" fill="#2f5a9e" text-anchor="start"><tspan x="706.0" y="168.2">yes</tspan></text>
<polyline points="595.0,208.0 595.0,262.0" fill="none" stroke="#b5bac0" stroke-width="1.2"/><polygon points="595.0,262.0 590.5,253.0 599.5,253.0" fill="#b5bac0"/>
<text font-size="9" fill="#b5bac0" text-anchor="start"><tspan x="603.0" y="237.2">no</tspan></text>
<polyline points="700.0,291.0 740.0,291.0" fill="none" stroke="#b5bac0" stroke-width="1.2"/><polygon points="740.0,291.0 731.0,295.5 731.0,286.5" fill="#b5bac0"/>
<polyline points="970.0,291.0 1010.0,291.0" fill="none" stroke="#b5bac0" stroke-width="1.2"/><polygon points="1010.0,291.0 1001.0,295.5 1001.0,286.5" fill="#b5bac0"/>
<polyline points="1240.0,291.0 1280.0,291.0" fill="none" stroke="#b5bac0" stroke-width="1.2"/><polygon points="1280.0,291.0 1271.0,295.5 1271.0,286.5" fill="#b5bac0"/>
<polyline points="1510.0,291.0 1550.0,291.0" fill="none" stroke="#b5bac0" stroke-width="1.2"/><polygon points="1550.0,291.0 1541.0,295.5 1541.0,286.5" fill="#b5bac0"/>
<text font-size="9" fill="#b5bac0" text-anchor="start"><tspan x="976.0" y="280.1">amends</tspan></text>
<text font-size="9" fill="#b5bac0" text-anchor="start"><tspan x="1246.0" y="280.1">not all</tspan></text>
<rect x="250.0" y="96.0" width="720.0" height="40.0" fill="#fff8e1" stroke="#8a6d00" stroke-dasharray="6 3" stroke-width="2"/>
<text font-size="9" fill="#8a6d00" text-anchor="start"><tspan x="254.0" y="113.5">Informal: trilogues of EP, Council and Commission at every stage (Joint Declaration 2007, points 7–9); a trilogue agreement confirmed by Coreper and</tspan><tspan x="254.0" y="124.8">offered by letter to the EP committee chair (point 14) leads to adoption at first reading.</tspan></text>
<text font-size="13" fill="#222222" text-anchor="start" font-weight="bold"><tspan x="24.0" y="388.6">Procedure over time – 2022/0302(COD)</tspan></text>
<line x1="210.0" y1="420.0" x2="210.0" y2="936.0" stroke="#e3e6e9" stroke-width="1"/>
<text font-size="9" fill="#555555" text-anchor="middle"><tspan x="210.0" y="415.1">Oct</tspan></text>
<line x1="269.1" y1="420.0" x2="269.1" y2="936.0" stroke="#e3e6e9" stroke-width="1"/>
<line x1="326.4" y1="420.0" x2="326.4" y2="936.0" stroke="#e3e6e9" stroke-width="1"/>
<line x1="385.5" y1="420.0" x2="385.5" y2="936.0" stroke="#b5bac0" stroke-width="1"/>
<text font-size="9" fill="#555555" text-anchor="middle" font-weight="bold"><tspan x="385.5" y="415.1">Jan 2023</tspan></text>
<line x1="444.6" y1="420.0" x2="444.6" y2="936.0" stroke="#e3e6e9" stroke-width="1"/>
<line x1="498.1" y1="420.0" x2="498.1" y2="936.0" stroke="#e3e6e9" stroke-width="1"/>
<line x1="557.2" y1="420.0" x2="557.2" y2="936.0" stroke="#e3e6e9" stroke-width="1"/>
<text font-size="9" fill="#555555" text-anchor="middle"><tspan x="557.2" y="415.1">Apr</tspan></text>
<line x1="614.4" y1="420.0" x2="614.4" y2="936.0" stroke="#e3e6e9" stroke-width="1"/>
<line x1="673.6" y1="420.0" x2="673.6" y2="936.0" stroke="#e3e6e9" stroke-width="1"/>
<line x1="730.8" y1="420.0" x2="730.8" y2="936.0" stroke="#e3e6e9" stroke-width="1"/>
<text font-size="9" fill="#555555" text-anchor="middle"><tspan x="730.8" y="415.1">Jul</tspan></text>
<line x1="789.9" y1="420.0" x2="789.9" y2="936.0" stroke="#e3e6e9" stroke-width="1"/>
<line x1="849.1" y1="420.0" x2="849.1" y2="936.0" stroke="#e3e6e9" stroke-width="1"/>
<line x1="906.3" y1="420.0" x2="906.3" y2="936.0" stroke="#e3e6e9" stroke-width="1"/>
<text font-size="9" fill="#555555" text-anchor="middle"><tspan x="906.3" y="415.1">Oct</tspan></text>
<line x1="965.4" y1="420.0" x2="965.4" y2="936.0" stroke="#e3e6e9" stroke-width="1"/>
<line x1="1022.7" y1="420.0" x2="1022.7" y2="936.0" stroke="#e3e6e9" stroke-width="1"/>
<line x1="1081.8" y1="420.0" x2="1081.8" y2="936.0" stroke="#b5bac0" stroke-width="1"/>
<text font-size="9" fill="#555555" text-anchor="middle" font-weight="bold"><tspan x="1081.8" y="415.1">Jan 2024</tspan></text>
<line x1="1140.9" y1="420.0" x2="1140.9" y2="936.0" stroke="#e3e6e9" stroke-width="1"/>
<line x1="1196.3" y1="420.0" x2="1196.3" y2="936.0" stroke="#e3e6e9" stroke-width="1"/>
<line x1="1255.4" y1="420.0" x2="1255.4" y2="936.0" stroke="#e3e6e9" stroke-width="1"/>
<text font-size="9" fill="#555555" text-anchor="middle"><tspan x="1255.4" y="415.1">Apr</tspan></text>
<line x1="1312.6" y1="420.0" x2="1312.6" y2="936.0" stroke="#e3e6e9" stroke-width="1"/>
<line x1="1371.8" y1="420.0" x2="1371.8" y2="936.0" stroke="#e3e6e9" stroke-width="1"/>
<line x1="1429.0" y1="420.0" x2="1429.0" y2="936.0" stroke="#e3e6e9" stroke-width="1"/>
<text font-size="9" fill="#555555" text-anchor="middle"><tspan x="1429.0" y="415.1">Jul</tspan></text>
<line x1="1488.1" y1="420.0" x2="1488.1" y2="936.0" stroke="#e3e6e9" stroke-width="1"/>
<line x1="1547.3" y1="420.0" x2="1547.3" y2="936.0" stroke="#e3e6e9" stroke-width="1"/>
<line x1="1604.5" y1="420.0" x2="1604.5" y2="936.0" stroke="#e3e6e9" stroke-width="1"/>
<text font-size="9" fill="#555555" text-anchor="middle"><tspan x="1604.5" y="415.1">Oct</tspan></text>
<line x1="1663.6" y1="420.0" x2="1663.6" y2="936.0" stroke="#e3e6e9" stroke-width="1"/>
<line x1="1720.9" y1="420.0" x2="1720.9" y2="936.0" stroke="#e3e6e9" stroke-width="1"/>
<line x1="1780.0" y1="420.0" x2="1780.0" y2="936.0" stroke="#b5bac0" stroke-width="1"/>
<text font-size="9" fill="#555555" text-anchor="middle" font-weight="bold"><tspan x="1780.0" y="415.1">Jan 2025</tspan></text>
<rect x="20.0" y="420.0" width="1760.0" height="86.0" fill="#ffffff" stroke="#eceef0"/>
<rect x="20.0" y="428.0" width="6.0" height="70.0" fill="#4a78c2" stroke="none"/>
<text font-size="11" fill="#4a78c2" text-anchor="start" font-weight="bold"><tspan x="34.0" y="466.9">European Commission</tspan></text>
<rect x="20.0" y="506.0" width="1760.0" height="86.0" fill="#fafbfc" stroke="#eceef0"/>
<rect x="20.0" y="514.0" width="6.0" height="70.0" fill="#7b8794" stroke="none"/>
<text font-size="11" fill="#7b8794" text-anchor="start" font-weight="bold"><tspan x="34.0" y="552.9">Consultative bodies</tspan></text>
<rect x="20.0" y="592.0" width="1760.0" height="86.0" fill="#ffffff" stroke="#eceef0"/>
<rect x="20.0" y="600.0" width="6.0" height="70.0" fill="#2e7d5b" stroke="none"/>
<text font-size="11" fill="#2e7d5b" text-anchor="start" font-weight="bold"><tspan x="34.0" y="638.9">European Parliament</tspan></text>
<rect x="20.0" y="678.0" width="1760.0" height="86.0" fill="#fafbfc" stroke="#eceef0"/>
<rect x="20.0" y="686.0" width="6.0" height="70.0" fill="#8a6d00" stroke="none"/>
<text font-size="11" fill="#8a6d00" text-anchor="start" font-weight="bold"><tspan x="34.0" y="724.9">Trilogues (informal)</tspan></text>
<rect x="20.0" y="764.0" width="1760.0" height="86.0" fill="#ffffff" stroke="#eceef0"/>
<rect x="20.0" y="772.0" width="6.0" height="70.0" fill="#b5472d" stroke="none"/>
<text font-size="11" fill="#b5472d" text-anchor="start" font-weight="bold"><tspan x="34.0" y="810.9">Council</tspan></text>
<rect x="20.0" y="850.0" width="1760.0" height="86.0" fill="#fafbfc" stroke="#eceef0"/>
<rect x="20.0" y="858.0" width="6.0" height="70.0" fill="#444444" stroke="none"/>
<text font-size="11" fill="#444444" text-anchor="start" font-weight="bold"><tspan x="34.0" y="896.9">Signature and publication</tspan></text>
<g><title>17 Oct 2022: Referral to committee announced in plenary</title><polygon points="240.5224787363305,629.0 246.5224787363305,635.0 240.5224787363305,641.0 234.5224787363305,635.0" fill="#ffffff" stroke="#222222" stroke-width="1.5"/></g>
<rect x="236.5" y="599.0" width="271.2" height="12.0" fill="#ffffff"/>
<text font-size="9" fill="#222222" text-anchor="start"><tspan x="240.5" y="608.1">17 Oct 2022 · Referral to committee announced in plenary</tspan></text>
<a xlink:href="https://eur-lex.europa.eu/legal-content/EN/TXT/?uri=CELEX:52022AE4922" target="_blank"><title>24 Jan 2023: EESC opinion – CELEX 52022AE4922</title><polygon points="429.38031591737547,543.0 435.38031591737547,549.0 429.38031591737547,555.0 423.38031591737547,549.0" fill="#ffffff" stroke="#222222" stroke-width="1.5"/></a>
<rect x="425.4" y="513.0" width="224.2" height="12.0" fill="#ffffff"/>
<a xlink:href="https://eur-lex.europa.eu/legal-content/EN/TXT/?uri=CELEX:52022AE4922" target="_blank"><text font-size="9" fill="#222222" text-anchor="start"><tspan x="429.4" y="522.1">24 Jan 2023 · EESC opinion (CELEX 52022AE4922)</tspan></text></a>
<g><title>31 Jan 2023: JURI rapporteur appointed (Pascal Arimont, PPE)</title><polygon points="442.7339003645201,629.0 448.7339003645201,635.0 442.7339003645201,641.0 436.7339003645201,635.0" fill="#ffffff" stroke="#222222" stroke-width="1.5"/></g>
<rect x="438.7" y="611.0" width="294.7" height="12.0" fill="#ffffff"/>
<text font-size="9" fill="#222222" text-anchor="start"><tspan x="442.7" y="620.1">31 Jan 2023 · JURI rapporteur appointed (Pascal Arimont, PPE)</tspan></text>
<g><title>31 Jan 2023: IMCO rapporteur appointed (Vlad-Marius Botoş, RENEW)</title><polygon points="442.7339003645201,629.0 448.7339003645201,635.0 442.7339003645201,641.0 436.7339003645201,635.0" fill="#ffffff" stroke="#222222" stroke-width="1.5"/></g>
<rect x="438.7" y="651.0" width="318.2" height="12.0" fill="#ffffff"/>
<text font-size="9" fill="#222222" text-anchor="start"><tspan x="442.7" y="660.1">31 Jan 2023 · IMCO rapporteur appointed (Vlad-Marius Botoş, RENEW)</tspan></text>
<g><title>05 Apr 2023: CJ24 draft report – PE745.537</title><polygon points="564.8238153098421,629.0 570.8238153098421,635.0 564.8238153098421,641.0 558.8238153098421,635.0" fill="#ffffff" stroke="#222222" stroke-width="1.5"/></g>
<rect x="560.8" y="599.0" width="210.1" height="12.0" fill="#ffffff"/>
<text font-size="9" fill="#222222" text-anchor="start"><tspan x="564.8" y="608.1">05 Apr 2023 · CJ24 draft report (PE745.537)</tspan></text>
<a xlink:href="https://data.consilium.europa.eu/doc/document/ST-10694-2023-INIT/en/pdf" target="_blank"><title>15 Jun 2023: Mandate for negotiations with the European Parliament – ST 10694/23</title><polygon points="700.2673147023086,801.0 706.2673147023086,807.0 700.2673147023086,813.0 694.2673147023086,807.0" fill="#ffffff" stroke="#222222" stroke-width="1.5"/></a>
<rect x="696.3" y="771.0" width="388.7" height="12.0" fill="#ffffff"/>
<a xlink:href="https://data.consilium.europa.eu/doc/document/ST-10694-2023-INIT/en/pdf" target="_blank"><text font-size="9" fill="#222222" text-anchor="start"><tspan x="700.3" y="780.1">15 Jun 2023 · Mandate for negotiations with the European Parliament (ST 10694/23)</tspan></text></a>
<g><title>09 Oct 2023: Committee adopts report and mandate</title><polygon points="921.5552855407047,629.0 927.5552855407047,635.0 921.5552855407047,641.0 915.5552855407047,635.0" fill="#ffffff" stroke="#222222" stroke-width="1.5"/></g>
<rect x="917.6" y="599.0" width="238.3" height="12.0" fill="#ffffff"/>
<text font-size="9" fill="#222222" text-anchor="start"><tspan x="921.6" y="608.1">09 Oct 2023 · Committee adopts report and mandate</tspan></text>
<g><title>12 Oct 2023: Report tabled for plenary – A9-0291/2023</title><polygon points="927.2782503037668,629.0 933.2782503037668,635.0 927.2782503037668,641.0 921.2782503037668,635.0" fill="#ffffff" stroke="#222222" stroke-width="1.5"/></g>
<rect x="923.3" y="611.0" width="261.8" height="12.0" fill="#ffffff"/>
<text font-size="9" fill="#222222" text-anchor="start"><tspan x="927.3" y="620.1">12 Oct 2023 · Report tabled for plenary (A9-0291/2023)</tspan></text>
<g><title>18 Oct 2023: Plenary confirms mandate for trilogues</title><polygon points="938.7241798298907,629.0 944.7241798298907,635.0 938.7241798298907,641.0 932.7241798298907,635.0" fill="#ffffff" stroke="#222222" stroke-width="1.5"/></g>
<rect x="934.7" y="651.0" width="252.4" height="12.0" fill="#ffffff"/>
<text font-size="9" fill="#222222" text-anchor="start"><tspan x="938.7" y="660.1">18 Oct 2023 · Plenary confirms mandate for trilogues</tspan></text>
<a xlink:href="https://data.consilium.europa.eu/doc/document/ST-5551-2024-INIT/en/pdf" target="_blank"><title>18 Jan 2024: Confirmation of the final compromise text with a view to agreement – ST 5551/24</title><polygon points="1114.2284325637909,801.0 1120.2284325637909,807.0 1114.2284325637909,813.0 1108.2284325637909,807.0" fill="#ffffff" stroke="#222222" stroke-width="1.5"/></a>
<rect x="1110.2" y="771.0" width="445.1" height="12.0" fill="#ffffff"/>
<a xlink:href="https://data.consilium.europa.eu/doc/document/ST-5551-2024-INIT/en/pdf" target="_blank"><text font-size="9" fill="#222222" text-anchor="start"><tspan x="1114.2" y="780.1">18 Jan 2024 · Confirmation of the final compromise text with a view to agreement (ST 5551/24)</tspan></text></a>
<a xlink:href="https://data.consilium.europa.eu/doc/document/ST-5553-2024-INIT/en/pdf" target="_blank"><title>18 Jan 2024: Confirmation of the final compromise text with a view to agreement – ST 5553/24</title><polygon points="1114.2284325637909,801.0 1120.2284325637909,807.0 1114.2284325637909,813.0 1108.2284325637909,807.0" fill="#ffffff" stroke="#222222" stroke-width="1.5"/></a>
<rect x="1110.2" y="783.0" width="445.1" height="12.0" fill="#ffffff"/>
<a xlink:href="https://data.consilium.europa.eu/doc/document/ST-5553-2024-INIT/en/pdf" target="_blank"><text font-size="9" fill="#222222" text-anchor="start"><tspan x="1114.2" y="792.1">18 Jan 2024 · Confirmation of the final compromise text with a view to agreement (ST 5553/24)</tspan></text></a>
<g><title>22 Feb 2024: Committee approves provisional agreement – PE758.731</title><polygon points="1180.996354799514,629.0 1186.996354799514,635.0 1180.996354799514,641.0 1174.996354799514,635.0" fill="#ffffff" stroke="#222222" stroke-width="1.5"/></g>
<rect x="1177.0" y="599.0" width="318.2" height="12.0" fill="#ffffff"/>
<text font-size="9" fill="#222222" text-anchor="start"><tspan x="1181.0" y="608.1">22 Feb 2024 · Committee approves provisional agreement (PE758.731)</tspan></text>
<g><title>12 Mar 2024: EP position at first reading – P9_TA(2024)0132</title><polygon points="1217.2417982989064,629.0 1223.2417982989064,635.0 1217.2417982989064,641.0 1211.2417982989064,635.0" fill="#ffffff" stroke="#222222" stroke-width="1.5"/></g>
<rect x="1213.2" y="611.0" width="290.0" height="12.0" fill="#ffffff"/>
<text font-size="9" fill="#222222" text-anchor="start"><tspan x="1217.2" y="620.1">12 Mar 2024 · EP position at first reading (P9_TA(2024)0132)</tspan></text>
<g><title>23 Oct 2024: Signature by the Presidents of EP and Council</title><polygon points="1646.464155528554,887.0 1652.464155528554,893.0 1646.464155528554,899.0 1640.464155528554,893.0" fill="#ffffff" stroke="#222222" stroke-width="1.5"/></g>
<rect x="1494.7" y="857.0" width="285.3" height="12.0" fill="#ffffff"/>
<text font-size="9" fill="#222222" text-anchor="start"><tspan x="1498.7" y="866.1">23 Oct 2024 · Signature by the Presidents of EP and Council</tspan></text>
<g><title>18 Nov 2024: Published in the Official Journal</title><polygon points="1696.0631834750911,887.0 1702.0631834750911,893.0 1696.0631834750911,899.0 1690.0631834750911,893.0" fill="#ffffff" stroke="#222222" stroke-width="1.5"/></g>
<rect x="1551.1" y="869.0" width="228.9" height="12.0" fill="#ffffff"/>
<text font-size="9" fill="#222222" text-anchor="start"><tspan x="1555.1" y="878.1">18 Nov 2024 · Published in the Official Journal</tspan></text>
<text font-size="11" fill="#222222" text-anchor="start" font-weight="bold"><tspan x="24.0" y="967.9">Notes</tspan></text>
<text font-size="9" fill="#6f757b" text-anchor="start"><tspan x="24.0" y="985.1">Sources: EP Open Data API (procedure events), Cellar procedure file and Council register documents (ST numbers), EUR-Lex. Our own compilation, not an official record.</tspan></text>
</svg>
