<svg xmlns="http://www.w3.org/2000/svg" xmlns:xlink="http://www.w3.org/1999/xlink" width="1800" height="1004" viewBox="0 0 1800 1004" font-family="Helvetica, Arial, sans-serif">
<rect width="1800" height="1004" fill="#ffffff"/>
<text font-size="18" fill="#222222" text-anchor="start" font-weight="bold"><tspan x="24.0" y="28.3">Legislative procedure – PPA – COM(2026) 590 (proposal)</tspan></text>
<text font-size="11" fill="#555555" text-anchor="start"><tspan x="24.0" y="48.9">Procedure 2026/0265(COD). Upper part: the ordinary legislative procedure (Art. 294 TFEU); steps done (blue) and in progress (orange) as of 25 Sep 2026. Lower part: the act&#x27;s procedure over time. Every event cites its source (see public-procurement-act.html).</tspan></text>
<text font-size="13" fill="#222222" text-anchor="start" font-weight="bold"><tspan x="24.0" y="82.5">Ordinary legislative procedure (Art. 294 TFEU)</tspan></text>
<rect x="20.0" y="150.0" width="190.0" height="58.0" fill="#dce6f6" stroke="#2f5a9e" stroke-width="2.5"/>
<text font-size="11" fill="#1f2d3d" text-anchor="middle" font-weight="bold"><tspan x="115.0" y="167.8">Commission proposal</tspan></text>
<text font-size="9" fill="#555555" text-anchor="middle"><tspan x="115.0" y="199.2">Art. 294(2)</tspan></text>
<text font-size="9" fill="#2f5a9e" text-anchor="middle" font-weight="bold"><tspan x="115.0" y="220.2">09 Sep 2026</tspan></text>
<rect x="250.0" y="150.0" width="200.0" height="58.0" fill="#fff3c4" stroke="#b07520" stroke-dasharray="6 3" stroke-width="2"/>
<text font-size="11" fill="#1f2d3d" text-anchor="middle" font-weight="bold"><tspan x="350.0" y="167.8">EP position at first reading</tspan></text>
<text font-size="9" fill="#555555" text-anchor="middle"><tspan x="350.0" y="199.2">Art. 294(3)</tspan></text>
<rect x="490.0" y="150.0" width="210.0" height="58.0" fill="#fff3c4" stroke="#b07520" stroke-dasharray="6 3" stroke-width="2"/>
<text font-size="11" fill="#1f2d3d" text-anchor="middle" font-weight="bold"><tspan x="595.0" y="167.8">Council approves the EP position?</tspan></text>
<text font-size="9" fill="#555555" text-anchor="middle"><tspan x="595.0" y="199.2">Art. 294(4)</tspan></text>
<text font-size="9" fill="#b07520" text-anchor="middle" font-weight="bold"><tspan x="595.0" y="220.2">Working party; no Council mandate in the register</tspan></text>
<rect x="740.0" y="150.0" width="230.0" height="58.0" fill="#f4f5f6" stroke="#b5bac0" stroke-width="1"/>
<text font-size="11" fill="#6f757b" text-anchor="middle"><tspan x="855.0" y="161.0">Act adopted in the wording of the EP</tspan><tspan x="855.0" y="174.7">position</tspan></text>
<text font-size="9" fill="#9aa0a6" text-anchor="middle"><tspan x="855.0" y="199.2">Art. 294(4)</tspan></text>
<rect x="490.0" y="262.0" width="210.0" height="58.0" fill="#f4f5f6" stroke="#b5bac0" stroke-width="1"/>
<text font-size="11" fill="#6f757b" text-anchor="middle"><tspan x="595.0" y="279.9">Council position at first reading</tspan></text>
<text font-size="9" fill="#9aa0a6" text-anchor="middle"><tspan x="595.0" y="311.1">Art. 294(5), (6)</tspan></text>
<rect x="740.0" y="262.0" width="230.0" height="58.0" fill="#f4f5f6" stroke="#b5bac0" stroke-width="1"/>
<text font-size="11" fill="#6f757b" text-anchor="middle"><tspan x="855.0" y="279.9">EP second reading, 3 (+1) months</tspan></text>
<text font-size="9" fill="#9aa0a6" text-anchor="middle"><tspan x="855.0" y="311.1">Art. 294(7), (14)</tspan></text>
<rect x="1010.0" y="262.0" width="230.0" height="58.0" fill="#f4f5f6" stroke="#b5bac0" stroke-width="1"/>
<text font-size="11" fill="#6f757b" text-anchor="middle"><tspan x="1125.0" y="279.9">Council second reading, 3 (+1) months</tspan></text>
<text font-size="9" fill="#9aa0a6" text-anchor="middle"><tspan x="1125.0" y="311.1">Art. 294(8), (9), (14)</tspan></text>
<rect x="1280.0" y="262.0" width="230.0" height="58.0" fill="#f4f5f6" stroke="#b5bac0" stroke-width="1"/>
<text font-size="11" fill="#6f757b" text-anchor="middle"><tspan x="1395.0" y="279.9">Conciliation Committee, 6 (+2) weeks</tspan></text>
<text font-size="9" fill="#9aa0a6" text-anchor="middle"><tspan x="1395.0" y="311.1">Art. 294(10)–(12), (14)</tspan></text>
<rect x="1550.0" y="262.0" width="230.0" height="58.0" fill="#f4f5f6" stroke="#b5bac0" stroke-width="1"/>
<text font-size="11" fill="#6f757b" text-anchor="middle"><tspan x="1665.0" y="273.0">Third reading: EP and Council, 6 (+2)</tspan><tspan x="1665.0" y="286.7">weeks</tspan></text>
<text font-size="9" fill="#9aa0a6" text-anchor="middle"><tspan x="1665.0" y="311.1">Art. 294(13), (14)</tspan></text>
<text font-size="9" fill="#6f757b" text-anchor="middle"><tspan x="855.0" y="338.5">approves or no decision → adopted (7a); rejects</tspan><tspan x="855.0" y="349.8">→ not adopted (7b)</tspan></text>
<text font-size="9" fill="#6f757b" text-anchor="middle"><tspan x="1125.0" y="344.1">approves all amendments → adopted (8a)</tspan></text>
<text font-size="9" fill="#6f757b" text-anchor="middle"><tspan x="1395.0" y="344.1">no joint text → not adopted (12)</tspan></text>
<text font-size="9" fill="#6f757b" text-anchor="middle"><tspan x="1665.0" y="338.5">both adopt → adopted; otherwise not adopted</tspan><tspan x="1665.0" y="349.8">(13)</tspan></text>
<polyline points="210.0,179.0 250.0,179.0" fill="none" stroke="#2f5a9e" stroke-width="2.5"/><polygon points="250.0,179.0 241.0,183.5 241.0,174.5" fill="#2f5a9e"/>
<polyline points="450.0,179.0 490.0,179.0" fill="none" stroke="#2f5a9e" stroke-width="2.5"/><polygon points="490.0,179.0 481.0,183.5 481.0,174.5" fill="#2f5a9e"/>
<polyline points="700.0,179.0 740.0,179.0" fill="none" stroke="#b5bac0" stroke-width="1.2"/><polygon points="740.0,179.0 731.0,183.5 731.0,174.5" fill="#b5bac0"/>
<text font-size="9" fill="#b5bac0" text-anchor="start"><tspan x="706.0" y="168.2">yes</tspan></text>
<polyline points="595.0,208.0 595.0,262.0" fill="none" stroke="#b5bac0" stroke-width="1.2"/><polygon points="595.0,262.0 590.5,253.0 599.5,253.0" fill="#b5bac0"/>
<text font-size="9" fill="#b5bac0" text-anchor="start"><tspan x="603.0" y="237.2">no</tspan></text>
<polyline points="700.0,291.0 740.0,291.0" fill="none" stroke="#b5bac0" stroke-width="1.2"/><polygon points="740.0,291.0 731.0,295.5 731.0,286.5" fill="#b5bac0"/>
<polyline points="970.0,291.0 1010.0,291.0" fill="none" stroke="#b5bac0" stroke-width="1.2"/><polygon points="1010.0,291.0 1001.0,295.5 1001.0,286.5" fill="#b5bac0"/>
<polyline points="1240.0,291.0 1280.0,291.0" fill="none" stroke="#b5bac0" stroke-width="1.2"/><polygon points="1280.0,291.0 1271.0,295.5 1271.0,286.5" fill="#b5bac0"/>
<polyline points="1510.0,291.0 1550.0,291.0" fill="none" stroke="#b5bac0" stroke-width="1.2"/><polygon points="1550.0,291.0 1541.0,295.5 1541.0,286.5" fill="#b5bac0"/>
<text font-size="9" fill="#b5bac0" text-anchor="start"><tspan x="976.0" y="280.1">amends</tspan></text>
<text font-size="9" fill="#b5bac0" text-anchor="start"><tspan x="1246.0" y="280.1">not all</tspan></text>
<rect x="250.0" y="96.0" width="720.0" height="40.0" fill="#fff8e1" stroke="#8a6d00" stroke-dasharray="6 3" stroke-width="2"/>
<text font-size="9" fill="#8a6d00" text-anchor="start"><tspan x="254.0" y="113.5">Informal: trilogues of EP, Council and Commission at every stage (Joint Declaration 2007, points 7–9); a trilogue agreement confirmed by Coreper and</tspan><tspan x="254.0" y="124.8">offered by letter to the EP committee chair (point 14) leads to adoption at first reading.</tspan></text>
<text font-size="13" fill="#222222" text-anchor="start" font-weight="bold"><tspan x="24.0" y="388.6">Procedure over time – 2026/0265(COD)</tspan></text>
<line x1="210.0" y1="420.0" x2="210.0" y2="936.0" stroke="#e3e6e9" stroke-width="1"/>
<line x1="727.6" y1="420.0" x2="727.6" y2="936.0" stroke="#e3e6e9" stroke-width="1"/>
<text font-size="9" fill="#555555" text-anchor="middle"><tspan x="727.6" y="415.1">Oct</tspan></text>
<line x1="1262.4" y1="420.0" x2="1262.4" y2="936.0" stroke="#e3e6e9" stroke-width="1"/>
<line x1="1780.0" y1="420.0" x2="1780.0" y2="936.0" stroke="#e3e6e9" stroke-width="1"/>
<rect x="20.0" y="420.0" width="1760.0" height="86.0" fill="#ffffff" stroke="#eceef0"/>
<rect x="20.0" y="428.0" width="6.0" height="70.0" fill="#4a78c2" stroke="none"/>
<text font-size="11" fill="#4a78c2" text-anchor="start" font-weight="bold"><tspan x="34.0" y="466.9">European Commission</tspan></text>
<rect x="20.0" y="506.0" width="1760.0" height="86.0" fill="#fafbfc" stroke="#eceef0"/>
<rect x="20.0" y="514.0" width="6.0" height="70.0" fill="#7b8794" stroke="none"/>
<text font-size="11" fill="#7b8794" text-anchor="start" font-weight="bold"><tspan x="34.0" y="552.9">Consultative bodies</tspan></text>
<rect x="20.0" y="592.0" width="1760.0" height="86.0" fill="#ffffff" stroke="#eceef0"/>
<rect x="20.0" y="600.0" width="6.0" height="70.0" fill="#2e7d5b" stroke="none"/>
<text font-size="11" fill="#2e7d5b" text-anchor="start" font-weight="bold"><tspan x="34.0" y="638.9">European Parliament</tspan></text>
<rect x="20.0" y="678.0" width="1760.0" height="86.0" fill="#fafbfc" stroke="#eceef0"/>
<rect x="20.0" y="686.0" width="6.0" height="70.0" fill="#8a6d00" stroke="none"/>
<text font-size="11" fill="#8a6d00" text-anchor="start" font-weight="bold"><tspan x="34.0" y="724.9">Trilogues (informal)</tspan></text>
<rect x="20.0" y="764.0" width="1760.0" height="86.0" fill="#ffffff" stroke="#eceef0"/>
<rect x="20.0" y="772.0" width="6.0" height="70.0" fill="#b5472d" stroke="none"/>
<text font-size="11" fill="#b5472d" text-anchor="start" font-weight="bold"><tspan x="34.0" y="810.9">Council</tspan></text>
<rect x="20.0" y="850.0" width="1760.0" height="86.0" fill="#fafbfc" stroke="#eceef0"/>
<rect x="20.0" y="858.0" width="6.0" height="70.0" fill="#444444" stroke="none"/>
<text font-size="11" fill="#444444" text-anchor="start" font-weight="bold"><tspan x="34.0" y="896.9">Signature and publication</tspan></text>
<line x1="624.1" y1="420.0" x2="624.1" y2="936.0" stroke="#c62828" stroke-width="2" stroke-dasharray="5 4"/>
<text font-size="9" fill="#c62828" text-anchor="middle" font-weight="bold"><tspan x="624.1" y="946.1">as of 25 Sep 2026</tspan></text>
<a xlink:href="https://eur-lex.europa.eu/legal-content/EN/TXT/?uri=CELEX:52026PC0590" target="_blank"><title>09 Sep 2026: Commission proposal – COM(2026) 590</title><polygon points="348.02197802197804,457.0 354.02197802197804,463.0 348.02197802197804,469.0 342.02197802197804,463.0" fill="#ffffff" stroke="#222222" stroke-width="1.5"/></a>
<rect x="344.0" y="427.0" width="238.3" height="12.0" fill="#ffffff"/>
<a xlink:href="https://eur-lex.europa.eu/legal-content/EN/TXT/?uri=CELEX:52026PC0590" target="_blank"><text font-size="9" fill="#222222" text-anchor="start"><tspan x="348.0" y="436.1">09 Sep 2026 · Commission proposal (COM(2026) 590)</tspan></text></a>
<text font-size="11" fill="#222222" text-anchor="start" font-weight="bold"><tspan x="24.0" y="967.9">Notes</tspan></text>
<text font-size="9" fill="#6f757b" text-anchor="start"><tspan x="24.0" y="985.1">Sources: EP Open Data API (procedure events), Cellar procedure file and Council register documents (ST numbers), EUR-Lex. Our own compilation, not an official record.</tspan></text>
</svg>
